<svg width="32" height="32" viewBox="0 0 32 32" fill="none" xmlns="http://www.w3.org/2000/svg">
<path d="M16.0001 4C21.2746 4 23.8965 8.0723 23.8965 11.451V14.8683C23.8965 15.416 24.0431 15.9537 24.3213 16.4255L24.682 17.0376C26.149 19.5263 24.3548 22.6667 21.4659 22.6667H10.4342C7.56743 22.6667 5.77035 19.5696 7.19294 17.0807L7.57513 16.412C7.84003 15.9486 7.97937 15.424 7.97937 14.8902V11.451C7.97937 8.0723 10.7256 4 16.0001 4Z" fill="white"/>
<path fill-rule="evenodd" clip-rule="evenodd" d="M12.332 26C12.332 25.4477 12.7797 25 13.332 25H18.6654C19.2176 25 19.6654 25.4477 19.6654 26C19.6654 26.5523 19.2176 27 18.6654 27H13.332C12.7797 27 12.332 26.5523 12.332 26Z" fill="white"/>
</svg>
