<svg width="104" height="20" viewBox="0 0 104 20" fill="none" xmlns="http://www.w3.org/2000/svg">
<path d="M9.99935 14.3891L15.1493 17.4974L13.7827 11.6391L18.3327 7.6974L12.341 7.18906L9.99935 1.66406L7.65768 7.18906L1.66602 7.6974L6.21602 11.6391L4.84935 17.4974L9.99935 14.3891Z" fill="white"/>
<path d="M30.9993 14.3891L36.1493 17.4974L34.7827 11.6391L39.3327 7.6974L33.341 7.18906L30.9993 1.66406L28.6577 7.18906L22.666 7.6974L27.216 11.6391L25.8493 17.4974L30.9993 14.3891Z" fill="white"/>
<path d="M51.9993 14.3891L57.1493 17.4974L55.7827 11.6391L60.3327 7.6974L54.341 7.18906L51.9993 1.66406L49.6577 7.18906L43.666 7.6974L48.216 11.6391L46.8493 17.4974L51.9993 14.3891Z" fill="white"/>
<path d="M72.9993 14.3891L78.1493 17.4974L76.7827 11.6391L81.3327 7.6974L75.341 7.18906L72.9993 1.66406L70.6577 7.18906L64.666 7.6974L69.216 11.6391L67.8493 17.4974L72.9993 14.3891Z" fill="white"/>
<path d="M93.9993 14.3891L99.1493 17.4974L97.7827 11.6391L102.333 7.6974L96.341 7.18906L93.9993 1.66406L91.6577 7.18906L85.666 7.6974L90.216 11.6391L88.8493 17.4974L93.9993 14.3891Z" fill="white"/>
</svg>
