<svg width="52" height="40" viewBox="0 0 52 40" fill="none" xmlns="http://www.w3.org/2000/svg">
<path d="M20.0934 39.3517C9.01688 39.3517 0 30.587 0 19.8087C0 9.03039 9.01158 0.265625 20.0934 0.265625C31.1752 0.265625 40.1868 9.03039 40.1868 19.8087C40.1868 30.587 31.1752 39.3517 20.0934 39.3517ZM20.0934 5.93543C12.2255 5.93543 5.82417 12.1614 5.82417 19.8138C5.82417 27.4663 12.2255 33.6922 20.0934 33.6922C27.9613 33.6922 34.3626 27.4663 34.3626 19.8138C34.3626 12.1614 27.9613 5.93543 20.0934 5.93543Z" fill="white"/>
<path d="M45.8785 15.0076C49.2588 15.0076 51.9992 12.3424 51.9992 9.0546C51.9992 5.76683 49.2588 3.10156 45.8785 3.10156C42.4981 3.10156 39.7578 5.76683 39.7578 9.0546C39.7578 12.3424 42.4981 15.0076 45.8785 15.0076Z" fill="white"/>
</svg>
