<svg width="32" height="32" viewBox="0 0 32 32" fill="none" xmlns="http://www.w3.org/2000/svg">
<path d="M9.33464 26.6668H5.33464C4.62739 26.6668 3.94911 26.3858 3.44902 25.8857C2.94892 25.3856 2.66797 24.7074 2.66797 24.0001V6.66679C2.66797 5.95955 2.94892 5.28127 3.44902 4.78118C3.94911 4.28108 4.62739 4.00013 5.33464 4.00013H10.5346C10.9806 3.99576 11.4206 4.10331 11.8142 4.31295C12.2079 4.5226 12.5427 4.82763 12.788 5.20013L13.868 6.80013C14.1108 7.16883 14.4413 7.47149 14.83 7.68093C15.2186 7.89038 15.6532 8.00006 16.0946 8.00013H26.668C27.3752 8.00013 28.0535 8.28108 28.5536 8.78118C29.0537 9.28127 29.3346 9.95955 29.3346 10.6668M21.3346 18.6668V21.3335L22.668 22.6668M29.3346 21.3335C29.3346 25.7517 25.7529 29.3335 21.3346 29.3335C16.9164 29.3335 13.3346 25.7517 13.3346 21.3335C13.3346 16.9152 16.9164 13.3335 21.3346 13.3335C25.7529 13.3335 29.3346 16.9152 29.3346 21.3335Z" stroke="white" stroke-width="2" stroke-linecap="round" stroke-linejoin="round"/>
</svg>
