<svg width="17" height="17" viewBox="0 0 17 17" fill="none" xmlns="http://www.w3.org/2000/svg">
<path d="M7.5 3.75C7.5 4.49168 7.28007 5.21671 6.86801 5.83339C6.45596 6.45007 5.87029 6.93072 5.18506 7.21455C4.49984 7.49838 3.74584 7.57264 3.01841 7.42795C2.29098 7.28325 1.6228 6.9261 1.09835 6.40165C0.573904 5.8772 0.216751 5.20902 0.0720569 4.48159C-0.0726377 3.75416 0.00162482 3.00016 0.285453 2.31494C0.569282 1.62972 1.04993 1.04405 1.66661 0.631991C2.2833 0.219935 3.00832 1.66943e-06 3.75 1.66943e-06C4.74456 1.66943e-06 5.69839 0.39509 6.40165 1.09835C7.10491 1.80161 7.5 2.75544 7.5 3.75ZM12.75 7.5C13.4917 7.5 14.2167 7.28007 14.8334 6.86801C15.4501 6.45596 15.9307 5.87029 16.2146 5.18506C16.4984 4.49984 16.5726 3.74584 16.4279 3.01841C16.2833 2.29098 15.9261 1.6228 15.4017 1.09835C14.8772 0.573904 14.209 0.216751 13.4816 0.0720569C12.7542 -0.0726377 12.0002 0.00162482 11.3149 0.285453C10.6297 0.569282 10.044 1.04993 9.63199 1.66661C9.21993 2.2833 9 3.00832 9 3.75C9 4.74456 9.39509 5.69839 10.0984 6.40165C10.8016 7.10491 11.7554 7.5 12.75 7.5ZM3.75 9C3.00832 9 2.2833 9.21993 1.66661 9.63199C1.04993 10.044 0.569282 10.6297 0.285453 11.3149C0.00162482 12.0002 -0.0726377 12.7542 0.0720569 13.4816C0.216751 14.209 0.573904 14.8772 1.09835 15.4017C1.6228 15.9261 2.29098 16.2833 3.01841 16.4279C3.74584 16.5726 4.49984 16.4984 5.18506 16.2146C5.87029 15.9307 6.45596 15.4501 6.86801 14.8334C7.28007 14.2167 7.5 13.4917 7.5 12.75C7.5 11.7554 7.10491 10.8016 6.40165 10.0984C5.69839 9.39509 4.74456 9 3.75 9ZM12.75 9C12.0083 9 11.2833 9.21993 10.6666 9.63199C10.0499 10.044 9.56928 10.6297 9.28545 11.3149C9.00162 12.0002 8.92736 12.7542 9.07206 13.4816C9.21675 14.209 9.5739 14.8772 10.0984 15.4017C10.6228 15.9261 11.291 16.2833 12.0184 16.4279C12.7458 16.5726 13.4998 16.4984 14.1851 16.2146C14.8703 15.9307 15.456 15.4501 15.868 14.8334C16.2801 14.2167 16.5 13.4917 16.5 12.75C16.5 11.7554 16.1049 10.8016 15.4017 10.0984C14.6984 9.39509 13.7446 9 12.75 9Z" fill="#060203"/>
</svg>
