<svg width="20" height="19" viewBox="0 0 20 19" fill="none" xmlns="http://www.w3.org/2000/svg">
<path d="M4 19C2.9 19 1.95833 18.6083 1.175 17.825C0.391667 17.0417 0 16.1 0 15C0 13.9 0.391667 12.9583 1.175 12.175C1.95833 11.3917 2.9 11 4 11C5.1 11 6.04167 11.3917 6.825 12.175C7.60833 12.9583 8 13.9 8 15C8 16.1 7.60833 17.0417 6.825 17.825C6.04167 18.6083 5.1 19 4 19ZM16 19C14.9 19 13.9583 18.6083 13.175 17.825C12.3917 17.0417 12 16.1 12 15C12 13.9 12.3917 12.9583 13.175 12.175C13.9583 11.3917 14.9 11 16 11C17.1 11 18.0417 11.3917 18.825 12.175C19.6083 12.9583 20 13.9 20 15C20 16.1 19.6083 17.0417 18.825 17.825C18.0417 18.6083 17.1 19 16 19ZM10 12.9C9.46667 12.9 9.01667 12.7167 8.65 12.35C8.28333 11.9833 8.1 11.5333 8.1 11C8.1 10.4667 8.28333 10.0167 8.65 9.65C9.01667 9.28333 9.46667 9.1 10 9.1C10.5333 9.1 10.9833 9.28333 11.35 9.65C11.7167 10.0167 11.9 10.4667 11.9 11C11.9 11.5333 11.7167 11.9833 11.35 12.35C10.9833 12.7167 10.5333 12.9 10 12.9ZM10 8C8.9 8 7.95833 7.60833 7.175 6.825C6.39167 6.04167 6 5.1 6 4C6 2.9 6.39167 1.95833 7.175 1.175C7.95833 0.391667 8.9 0 10 0C11.1 0 12.0417 0.391667 12.825 1.175C13.6083 1.95833 14 2.9 14 4C14 5.1 13.6083 6.04167 12.825 6.825C12.0417 7.60833 11.1 8 10 8Z" fill="black"/>
</svg>
