<svg width="335" height="164" viewBox="0 0 335 164" fill="none" xmlns="http://www.w3.org/2000/svg">
<g clip-path="url(#clip0_6_231)">
<rect width="335" height="164" rx="12" fill="#060203" fill-opacity="0.5"/>
<g filter="url(#filter0_ii_6_231)">
<circle cx="318" cy="48" r="30" fill="white" fill-opacity="0.1"/>
</g>
<g filter="url(#filter1_ii_6_231)">
<circle cx="76" cy="117" r="28" fill="white" fill-opacity="0.1"/>
</g>
<g filter="url(#filter2_ii_6_231)">
<circle cx="265" cy="100" r="39" fill="#AA192E" fill-opacity="0.16"/>
</g>
<g filter="url(#filter3_ii_6_231)">
<circle cx="28" cy="83" r="20" fill="#AA192E" fill-opacity="0.16"/>
</g>
<g filter="url(#filter4_ii_6_231)">
<circle cx="67" cy="68" r="12" fill="#AA192E" fill-opacity="0.16"/>
</g>
<path d="M228.674 62.031L226.69 61.3099L225.969 59.3262C225.933 59.2305 225.87 59.1479 225.786 59.0896C225.702 59.0313 225.602 59 225.5 59C225.398 59 225.298 59.0313 225.214 59.0896C225.13 59.1479 225.067 59.2305 225.031 59.3262L224.31 61.3099L222.326 62.031C222.23 62.0665 222.148 62.1305 222.09 62.2143C222.031 62.2982 222 62.3979 222 62.5C222 62.6021 222.031 62.7018 222.09 62.7857C222.148 62.8695 222.23 62.9335 222.326 62.969L224.31 63.6904L225.031 65.6738C225.067 65.7695 225.13 65.8521 225.214 65.9104C225.298 65.9687 225.398 66 225.5 66C225.602 66 225.702 65.9687 225.786 65.9104C225.87 65.8521 225.933 65.7695 225.969 65.6738L226.69 63.6901L228.674 62.969C228.77 62.9335 228.852 62.8695 228.91 62.7857C228.969 62.7018 229 62.6021 229 62.5C229 62.3979 228.969 62.2982 228.91 62.2143C228.852 62.1305 228.77 62.0665 228.674 62.031ZM226.409 63.2598C226.375 63.2723 226.344 63.2922 226.318 63.318C226.292 63.3438 226.272 63.375 226.26 63.4093L225.5 65.4987L224.74 63.4093C224.728 63.375 224.708 63.3438 224.682 63.318C224.656 63.2922 224.625 63.2723 224.591 63.2598L222.501 62.5L224.591 61.7402C224.625 61.7277 224.656 61.7078 224.682 61.682C224.708 61.6562 224.728 61.625 224.74 61.5907L225.5 59.5013L226.26 61.5907C226.272 61.625 226.292 61.6562 226.318 61.682C226.344 61.7078 226.375 61.7277 226.409 61.7402L228.499 62.5L226.409 63.2598Z" fill="white"/>
<path d="M322.713 93.8652L319.528 92.7078L318.371 89.5236C318.314 89.3699 318.211 89.2374 318.077 89.1438C317.942 89.0502 317.782 89 317.618 89C317.454 89 317.294 89.0502 317.16 89.1438C317.025 89.2374 316.922 89.3699 316.865 89.5236L315.708 92.7078L312.524 93.8652C312.37 93.9223 312.237 94.025 312.144 94.1596C312.05 94.2942 312 94.4542 312 94.6181C312 94.7821 312.05 94.9421 312.144 95.0767C312.237 95.2112 312.37 95.314 312.524 95.371L315.708 96.5289L316.865 99.7126C316.922 99.8663 317.025 99.9989 317.16 100.092C317.294 100.186 317.454 100.236 317.618 100.236C317.782 100.236 317.942 100.186 318.077 100.092C318.211 99.9989 318.314 99.8663 318.371 99.7126L319.529 96.5284L322.713 95.371C322.866 95.314 322.999 95.2112 323.092 95.0767C323.186 94.9421 323.236 94.7821 323.236 94.6181C323.236 94.4542 323.186 94.2942 323.092 94.1596C322.999 94.025 322.866 93.9223 322.713 93.8652ZM319.078 95.8378C319.023 95.8578 318.973 95.8897 318.931 95.9312C318.89 95.9726 318.858 96.0226 318.838 96.0777L317.618 99.4315L316.398 96.0777C316.378 96.0226 316.347 95.9726 316.305 95.9312C316.264 95.8897 316.214 95.8578 316.159 95.8378L312.805 94.6181L316.159 93.3985C316.214 93.3784 316.264 93.3465 316.305 93.3051C316.347 93.2636 316.378 93.2136 316.398 93.1585L317.618 89.8047L318.838 93.1585C318.858 93.2136 318.89 93.2636 318.931 93.3051C318.973 93.3465 319.023 93.3784 319.078 93.3985L322.432 94.6181L319.078 95.8378Z" fill="white"/>
<path d="M207.814 125.732L206.68 125.32L206.268 124.186C206.248 124.132 206.211 124.085 206.163 124.051C206.115 124.018 206.058 124 206 124C205.942 124 205.885 124.018 205.837 124.051C205.789 124.085 205.752 124.132 205.732 124.186L205.32 125.32L204.186 125.732C204.132 125.752 204.085 125.789 204.051 125.837C204.018 125.885 204 125.942 204 126C204 126.058 204.018 126.115 204.051 126.163C204.085 126.211 204.132 126.248 204.186 126.268L205.32 126.68L205.732 127.814C205.752 127.868 205.789 127.915 205.837 127.949C205.885 127.982 205.942 128 206 128C206.058 128 206.115 127.982 206.163 127.949C206.211 127.915 206.248 127.868 206.268 127.814L206.68 126.68L207.814 126.268C207.868 126.248 207.915 126.211 207.949 126.163C207.982 126.115 208 126.058 208 126C208 125.942 207.982 125.885 207.949 125.837C207.915 125.789 207.868 125.752 207.814 125.732ZM206.52 126.434C206.5 126.441 206.482 126.453 206.467 126.467C206.453 126.482 206.441 126.5 206.434 126.52L206 127.714L205.566 126.52C205.559 126.5 205.547 126.482 205.533 126.467C205.518 126.453 205.5 126.441 205.48 126.434L204.286 126L205.48 125.566C205.5 125.559 205.518 125.547 205.533 125.533C205.547 125.518 205.559 125.5 205.566 125.48L206 124.286L206.434 125.48C206.441 125.5 206.453 125.518 206.467 125.533C206.482 125.547 206.5 125.559 206.52 125.566L207.714 126L206.52 126.434Z" fill="white"/>
<path d="M41.7204 112.598L40.0201 111.98L39.402 110.28C39.3716 110.198 39.3167 110.127 39.2448 110.077C39.173 110.027 39.0875 110 39 110C38.9125 110 38.827 110.027 38.7552 110.077C38.6833 110.127 38.6284 110.198 38.598 110.28L37.9799 111.98L36.2796 112.598C36.1975 112.628 36.1268 112.683 36.0768 112.755C36.0268 112.827 36 112.912 36 113C36 113.088 36.0268 113.173 36.0768 113.245C36.1268 113.317 36.1975 113.372 36.2796 113.402L37.9799 114.02L38.598 115.72C38.6284 115.802 38.6833 115.873 38.7552 115.923C38.827 115.973 38.9125 116 39 116C39.0875 116 39.173 115.973 39.2448 115.923C39.3167 115.873 39.3716 115.802 39.402 115.72L40.0203 114.02L41.7204 113.402C41.8025 113.372 41.8732 113.317 41.9232 113.245C41.9732 113.173 42 113.088 42 113C42 112.912 41.9732 112.827 41.9232 112.755C41.8732 112.683 41.8025 112.628 41.7204 112.598ZM39.7794 113.651C39.75 113.662 39.7233 113.679 39.7011 113.701C39.679 113.723 39.662 113.75 39.6513 113.779L39 115.57L38.3487 113.779C38.338 113.75 38.321 113.723 38.2989 113.701C38.2767 113.679 38.25 113.662 38.2206 113.651L36.4297 113L38.2206 112.349C38.25 112.338 38.2767 112.321 38.2989 112.299C38.321 112.277 38.338 112.25 38.3487 112.221L39 110.43L39.6513 112.221C39.662 112.25 39.679 112.277 39.7011 112.299C39.7233 112.321 39.75 112.338 39.7794 112.349L41.5703 113L39.7794 113.651Z" fill="white"/>
<path d="M117 89.5C117.001 89.5733 116.978 89.6449 116.936 89.705C116.894 89.765 116.835 89.8105 116.766 89.835L115.349 90.3503L114.834 91.767C114.809 91.8354 114.763 91.8944 114.703 91.936C114.643 91.9777 114.572 92 114.499 92C114.426 92 114.355 91.9777 114.295 91.936C114.235 91.8944 114.19 91.8354 114.164 91.767L113.649 90.3501L112.233 89.835C112.165 89.8096 112.106 89.7639 112.064 89.704C112.022 89.6442 112 89.5729 112 89.5C112 89.4271 112.022 89.3558 112.064 89.296C112.106 89.2361 112.165 89.1904 112.233 89.165L113.649 88.6499L114.164 87.233C114.19 87.1646 114.235 87.1056 114.295 87.064C114.355 87.0223 114.426 87 114.499 87C114.572 87 114.643 87.0223 114.703 87.064C114.763 87.1056 114.809 87.1646 114.834 87.233L115.349 88.6499L116.766 89.165C116.835 89.1895 116.894 89.235 116.936 89.295C116.978 89.3551 117.001 89.4267 117 89.5Z" fill="white"/>
<path d="M52 66C52.0004 66.0586 51.9826 66.1159 51.949 66.164C51.9154 66.212 51.8677 66.2484 51.8124 66.268L50.6792 66.6802L50.2673 67.8136C50.247 67.8683 50.2105 67.9155 50.1626 67.9488C50.1147 67.9821 50.0577 68 49.9994 68C49.941 68 49.8841 67.9821 49.8362 67.9488C49.7883 67.9155 49.7518 67.8683 49.7315 67.8136L49.3195 66.6801L48.1863 66.268C48.1317 66.2477 48.0845 66.2111 48.0512 66.1632C48.0179 66.1153 48 66.0584 48 66C48 65.9416 48.0179 65.8847 48.0512 65.8368C48.0845 65.7889 48.1317 65.7523 48.1863 65.732L49.3195 65.3199L49.7315 64.1864C49.7518 64.1317 49.7883 64.0845 49.8362 64.0512C49.8841 64.0179 49.941 64 49.9994 64C50.0577 64 50.1147 64.0179 50.1626 64.0512C50.2105 64.0845 50.247 64.1317 50.2673 64.1864L50.6794 65.3199L51.8124 65.732C51.8677 65.7516 51.9154 65.788 51.949 65.836C51.9826 65.8841 52.0004 65.9414 52 66Z" fill="white"/>
<path d="M101 114C101 114.059 100.983 114.116 100.949 114.164C100.915 114.212 100.868 114.248 100.812 114.268L99.6792 114.68L99.2673 115.814C99.247 115.868 99.2105 115.915 99.1626 115.949C99.1147 115.982 99.0577 116 98.9994 116C98.941 116 98.8841 115.982 98.8362 115.949C98.7883 115.915 98.7518 115.868 98.7315 115.814L98.3195 114.68L97.1863 114.268C97.1317 114.248 97.0845 114.211 97.0512 114.163C97.0179 114.115 97 114.058 97 114C97 113.942 97.0179 113.885 97.0512 113.837C97.0845 113.789 97.1317 113.752 97.1863 113.732L98.3195 113.32L98.7315 112.186C98.7518 112.132 98.7883 112.085 98.8362 112.051C98.8841 112.018 98.941 112 98.9994 112C99.0577 112 99.1147 112.018 99.1626 112.051C99.2105 112.085 99.247 112.132 99.2673 112.186L99.6794 113.32L100.812 113.732C100.868 113.752 100.915 113.788 100.949 113.836C100.983 113.884 101 113.941 101 114Z" fill="white"/>
<path d="M279 53C279 53.0586 278.983 53.1159 278.949 53.164C278.915 53.212 278.868 53.2484 278.812 53.268L277.679 53.6802L277.267 54.8136C277.247 54.8683 277.21 54.9155 277.163 54.9488C277.115 54.9821 277.058 55 276.999 55C276.941 55 276.884 54.9821 276.836 54.9488C276.788 54.9155 276.752 54.8683 276.731 54.8136L276.32 53.6801L275.186 53.268C275.132 53.2477 275.084 53.2111 275.051 53.1632C275.018 53.1153 275 53.0584 275 53C275 52.9416 275.018 52.8847 275.051 52.8368C275.084 52.7889 275.132 52.7523 275.186 52.732L276.32 52.3199L276.731 51.1864C276.752 51.1317 276.788 51.0845 276.836 51.0512C276.884 51.0179 276.941 51 276.999 51C277.058 51 277.115 51.0179 277.163 51.0512C277.21 51.0845 277.247 51.1317 277.267 51.1864L277.679 52.3199L278.812 52.732C278.868 52.7516 278.915 52.788 278.949 52.836C278.983 52.8841 279 52.9414 279 53Z" fill="white"/>
</g>
<defs>
<filter id="filter0_ii_6_231" x="288" y="15" width="63" height="67" filterUnits="userSpaceOnUse" color-interpolation-filters="sRGB">
<feFlood flood-opacity="0" result="BackgroundImageFix"/>
<feBlend mode="normal" in="SourceGraphic" in2="BackgroundImageFix" result="shape"/>
<feColorMatrix in="SourceAlpha" type="matrix" values="0 0 0 0 0 0 0 0 0 0 0 0 0 0 0 0 0 0 127 0" result="hardAlpha"/>
<feOffset dy="4"/>
<feGaussianBlur stdDeviation="8"/>
<feComposite in2="hardAlpha" operator="arithmetic" k2="-1" k3="1"/>
<feColorMatrix type="matrix" values="0 0 0 0 1 0 0 0 0 1 0 0 0 0 1 0 0 0 0.16 0"/>
<feBlend mode="normal" in2="shape" result="effect1_innerShadow_6_231"/>
<feColorMatrix in="SourceAlpha" type="matrix" values="0 0 0 0 0 0 0 0 0 0 0 0 0 0 0 0 0 0 127 0" result="hardAlpha"/>
<feOffset dx="3" dy="-3"/>
<feGaussianBlur stdDeviation="3"/>
<feComposite in2="hardAlpha" operator="arithmetic" k2="-1" k3="1"/>
<feColorMatrix type="matrix" values="0 0 0 0 1 0 0 0 0 1 0 0 0 0 1 0 0 0 0.2 0"/>
<feBlend mode="normal" in2="effect1_innerShadow_6_231" result="effect2_innerShadow_6_231"/>
</filter>
<filter id="filter1_ii_6_231" x="48" y="86" width="59" height="63" filterUnits="userSpaceOnUse" color-interpolation-filters="sRGB">
<feFlood flood-opacity="0" result="BackgroundImageFix"/>
<feBlend mode="normal" in="SourceGraphic" in2="BackgroundImageFix" result="shape"/>
<feColorMatrix in="SourceAlpha" type="matrix" values="0 0 0 0 0 0 0 0 0 0 0 0 0 0 0 0 0 0 127 0" result="hardAlpha"/>
<feOffset dy="4"/>
<feGaussianBlur stdDeviation="8"/>
<feComposite in2="hardAlpha" operator="arithmetic" k2="-1" k3="1"/>
<feColorMatrix type="matrix" values="0 0 0 0 1 0 0 0 0 1 0 0 0 0 1 0 0 0 0.16 0"/>
<feBlend mode="normal" in2="shape" result="effect1_innerShadow_6_231"/>
<feColorMatrix in="SourceAlpha" type="matrix" values="0 0 0 0 0 0 0 0 0 0 0 0 0 0 0 0 0 0 127 0" result="hardAlpha"/>
<feOffset dx="3" dy="-3"/>
<feGaussianBlur stdDeviation="3"/>
<feComposite in2="hardAlpha" operator="arithmetic" k2="-1" k3="1"/>
<feColorMatrix type="matrix" values="0 0 0 0 1 0 0 0 0 1 0 0 0 0 1 0 0 0 0.2 0"/>
<feBlend mode="normal" in2="effect1_innerShadow_6_231" result="effect2_innerShadow_6_231"/>
</filter>
<filter id="filter2_ii_6_231" x="226" y="58" width="81" height="85" filterUnits="userSpaceOnUse" color-interpolation-filters="sRGB">
<feFlood flood-opacity="0" result="BackgroundImageFix"/>
<feBlend mode="normal" in="SourceGraphic" in2="BackgroundImageFix" result="shape"/>
<feColorMatrix in="SourceAlpha" type="matrix" values="0 0 0 0 0 0 0 0 0 0 0 0 0 0 0 0 0 0 127 0" result="hardAlpha"/>
<feOffset dy="4"/>
<feGaussianBlur stdDeviation="8"/>
<feComposite in2="hardAlpha" operator="arithmetic" k2="-1" k3="1"/>
<feColorMatrix type="matrix" values="0 0 0 0 1 0 0 0 0 1 0 0 0 0 1 0 0 0 0.16 0"/>
<feBlend mode="normal" in2="shape" result="effect1_innerShadow_6_231"/>
<feColorMatrix in="SourceAlpha" type="matrix" values="0 0 0 0 0 0 0 0 0 0 0 0 0 0 0 0 0 0 127 0" result="hardAlpha"/>
<feOffset dx="3" dy="-3"/>
<feGaussianBlur stdDeviation="3"/>
<feComposite in2="hardAlpha" operator="arithmetic" k2="-1" k3="1"/>
<feColorMatrix type="matrix" values="0 0 0 0 1 0 0 0 0 1 0 0 0 0 1 0 0 0 0.2 0"/>
<feBlend mode="normal" in2="effect1_innerShadow_6_231" result="effect2_innerShadow_6_231"/>
</filter>
<filter id="filter3_ii_6_231" x="8" y="60" width="43" height="47" filterUnits="userSpaceOnUse" color-interpolation-filters="sRGB">
<feFlood flood-opacity="0" result="BackgroundImageFix"/>
<feBlend mode="normal" in="SourceGraphic" in2="BackgroundImageFix" result="shape"/>
<feColorMatrix in="SourceAlpha" type="matrix" values="0 0 0 0 0 0 0 0 0 0 0 0 0 0 0 0 0 0 127 0" result="hardAlpha"/>
<feOffset dy="4"/>
<feGaussianBlur stdDeviation="8"/>
<feComposite in2="hardAlpha" operator="arithmetic" k2="-1" k3="1"/>
<feColorMatrix type="matrix" values="0 0 0 0 1 0 0 0 0 1 0 0 0 0 1 0 0 0 0.16 0"/>
<feBlend mode="normal" in2="shape" result="effect1_innerShadow_6_231"/>
<feColorMatrix in="SourceAlpha" type="matrix" values="0 0 0 0 0 0 0 0 0 0 0 0 0 0 0 0 0 0 127 0" result="hardAlpha"/>
<feOffset dx="3" dy="-3"/>
<feGaussianBlur stdDeviation="3"/>
<feComposite in2="hardAlpha" operator="arithmetic" k2="-1" k3="1"/>
<feColorMatrix type="matrix" values="0 0 0 0 1 0 0 0 0 1 0 0 0 0 1 0 0 0 0.2 0"/>
<feBlend mode="normal" in2="effect1_innerShadow_6_231" result="effect2_innerShadow_6_231"/>
</filter>
<filter id="filter4_ii_6_231" x="55" y="53" width="27" height="31" filterUnits="userSpaceOnUse" color-interpolation-filters="sRGB">
<feFlood flood-opacity="0" result="BackgroundImageFix"/>
<feBlend mode="normal" in="SourceGraphic" in2="BackgroundImageFix" result="shape"/>
<feColorMatrix in="SourceAlpha" type="matrix" values="0 0 0 0 0 0 0 0 0 0 0 0 0 0 0 0 0 0 127 0" result="hardAlpha"/>
<feOffset dy="4"/>
<feGaussianBlur stdDeviation="8"/>
<feComposite in2="hardAlpha" operator="arithmetic" k2="-1" k3="1"/>
<feColorMatrix type="matrix" values="0 0 0 0 1 0 0 0 0 1 0 0 0 0 1 0 0 0 0.16 0"/>
<feBlend mode="normal" in2="shape" result="effect1_innerShadow_6_231"/>
<feColorMatrix in="SourceAlpha" type="matrix" values="0 0 0 0 0 0 0 0 0 0 0 0 0 0 0 0 0 0 127 0" result="hardAlpha"/>
<feOffset dx="3" dy="-3"/>
<feGaussianBlur stdDeviation="3"/>
<feComposite in2="hardAlpha" operator="arithmetic" k2="-1" k3="1"/>
<feColorMatrix type="matrix" values="0 0 0 0 1 0 0 0 0 1 0 0 0 0 1 0 0 0 0.2 0"/>
<feBlend mode="normal" in2="effect1_innerShadow_6_231" result="effect2_innerShadow_6_231"/>
</filter>
<clipPath id="clip0_6_231">
<rect width="335" height="164" rx="12" fill="white"/>
</clipPath>
</defs>
</svg>
