<svg width="83" height="78" viewBox="0 0 83 78" fill="none" xmlns="http://www.w3.org/2000/svg">
<g clip-path="url(#clip0_229_38541)">
<path d="M15.4762 9.92097C15.4797 9.88283 15.4554 9.85163 15.4208 9.84469C11.3744 9.76669 8.10438 5.4346 8.04546 0.0745416C8.04546 0.032937 8.01947 0 7.99001 0C7.95881 0 7.93455 0.032937 7.93455 0.0745416C7.87563 5.4346 4.60561 9.76669 0.559249 9.84469C0.52459 9.85163 0.498596 9.88283 0.503795 9.91924H0.500329C0.496863 9.95737 0.521124 9.99031 0.555783 9.99551C4.60215 10.0735 7.87217 14.4056 7.93109 19.7657C7.93109 19.8073 7.95708 19.8385 7.98654 19.8385H7.98827C8.02293 19.8333 8.04892 19.8003 8.04373 19.7657C8.10264 14.4056 11.3727 10.0735 15.419 9.99551C15.4537 9.98858 15.4779 9.95564 15.4745 9.92097H15.4762Z" fill="#F0F2FC"/>
<path d="M79.4965 67.6163C79.5 67.5781 79.4757 67.5452 79.4411 67.54C75.3947 67.462 72.1247 63.1299 72.0658 57.7699C72.0658 57.7283 72.0398 57.6953 72.0103 57.6953C71.9791 57.6953 71.9549 57.7283 71.9549 57.7699C71.8959 63.1299 68.6259 67.462 64.5796 67.54C64.5449 67.5469 64.5189 67.5781 64.5241 67.6145C64.5206 67.6527 64.5449 67.6856 64.5796 67.6908C68.6259 67.7688 71.8959 72.1009 71.9549 77.461C71.9549 77.5026 71.9809 77.5355 72.0103 77.5355C72.0415 77.5355 72.0658 77.5026 72.0658 77.461C72.1247 72.1009 75.3947 67.7688 79.4411 67.6908C79.4757 67.6839 79.5017 67.6527 79.4965 67.6163Z" fill="#F0F2FC"/>
<path d="M44.411 26.8846L42.231 29.4675C41.5985 30.2164 40.4808 30.31 39.7321 29.6773C39.7217 29.6686 39.7096 29.6582 39.6992 29.6478L38.6733 28.7377L28.995 20.1429C28.2741 19.5032 28.1961 18.4042 28.8182 17.6692L29.981 16.2945L30.5529 15.6184C31.175 14.8816 32.2702 14.7759 33.0205 15.3809L44.1719 24.3571C44.9344 24.9725 45.0557 26.0889 44.4405 26.8516C44.4318 26.862 44.4214 26.8742 44.4128 26.8846H44.411Z" fill="#760829"/>
<path d="M40.2382 26.887L38.6733 28.7401L28.995 20.1453C28.2741 19.5056 28.1961 18.4066 28.8182 17.6716L29.981 16.2969L39.9955 24.3595C40.758 24.9732 40.8793 26.0913 40.2659 26.854C40.2572 26.8644 40.2485 26.8766 40.2382 26.887Z" fill="#9A0935"/>
<path d="M64.7942 43.7352C64.7942 45.5034 63.3628 46.9371 61.5952 46.9371C59.8277 46.9371 58.3945 45.5052 58.3945 43.737C58.3945 41.9688 59.8259 40.5352 61.5935 40.5352C61.8257 40.5352 62.0562 40.5594 62.2815 40.6114C63.7493 40.9321 64.7942 42.2323 64.7942 43.7352Z" fill="#5D0713"/>
<path d="M47.8305 57.8209L45.4564 62.3732C44.8221 63.5884 43.3231 64.0581 42.1084 63.4254L37.5577 61.0487C36.7658 60.6362 36.258 59.8283 36.2286 58.9338C36.2112 58.5039 36.3065 58.0792 36.5076 57.6978L38.8817 53.1456C39.5159 51.9304 41.0149 51.4606 42.2297 52.0951L45.9104 54.0176L46.7803 54.47C47.9951 55.1045 48.4647 56.604 47.8305 57.8192V57.8209Z" fill="#7C1D3A"/>
<path d="M62.9755 42.5998C62.9755 44.368 61.5441 45.8016 59.7765 45.8016C59.5443 45.8016 59.3138 45.7773 59.0885 45.7271C57.9899 44.342 58.2203 42.3276 59.6049 41.2286C60.1699 40.7796 60.8717 40.5352 61.5943 40.5352C61.8266 40.5352 62.057 40.5594 62.2823 40.6114C62.7329 41.1766 62.9772 41.8769 62.9755 42.5998Z" fill="#730313"/>
<path d="M45.6314 55.2557L43.2573 59.808C42.623 61.0232 41.1258 61.4947 39.911 60.8602C39.911 60.8602 39.911 60.8602 39.9093 60.8602L36.2286 58.9377C36.2112 58.5078 36.3065 58.0831 36.5076 57.7017L38.8817 53.1495C39.5159 51.9343 41.0149 51.4645 42.2297 52.099L45.9104 54.0215C45.9277 54.4514 45.8324 54.8761 45.6314 55.2575V55.2557Z" fill="#F08BC2"/>
<path d="M13.4883 76.7271L9.45926 77.8816C7.84245 78.3445 6.15459 77.4084 5.6919 75.7892C5.60178 75.472 5.56193 75.1444 5.57752 74.815C5.63471 73.5149 6.51157 72.3933 7.761 72.0258L20.245 68.3438L19.0787 71.6687L13.4883 76.7271Z" fill="#730313"/>
<path d="M22.3209 37.0992L26.3482 35.9464C27.9667 35.4836 29.6529 36.4197 30.1156 38.0388C30.2057 38.3543 30.2438 38.6837 30.2299 39.0113C30.1727 40.3115 29.2959 41.4331 28.0465 41.8006L15.5625 45.4826L16.7288 42.1577L22.3192 37.0992H22.3209Z" fill="#730313"/>
<path d="M21.8392 72.7806C21.0005 73.474 20.0942 74.079 19.1307 74.5869C17.3423 75.5247 15.4448 76.2424 13.4848 76.7261C13.4848 76.7261 16.4083 74.5574 16.4083 69.1228C16.4083 66.5069 15.7307 63.1352 13.7257 58.8863C7.55306 45.8034 13.9649 41.0432 13.9649 41.0432C15.9837 39.353 18.8482 37.987 22.3193 37.0977C22.3193 37.0977 21.4389 37.7512 20.6453 39.2386C19.9902 40.4624 19.3958 42.2497 19.3958 44.7026C19.3958 47.3168 20.0734 50.6902 22.0784 54.9391C28.251 68.0203 21.8392 72.7806 21.8392 72.7806Z" fill="#AA192E"/>
<path d="M77.1127 28.3937L80.3342 28.1423C81.6287 28.0418 82.5957 26.9115 82.4934 25.6166C82.4744 25.3635 82.4137 25.1156 82.3149 24.8833C81.9233 23.9593 80.9893 23.3855 79.9876 23.4549L69.9766 24.1518L71.7129 26.2406L77.1127 28.392V28.3937Z" fill="#730313"/>
<path d="M60.0756 2.12891L56.8541 2.38027C55.5596 2.48081 54.5927 3.61107 54.6949 4.90601C54.714 5.15911 54.7746 5.407 54.8734 5.6393C55.265 6.56327 56.1991 7.13706 57.2007 7.06772L67.2118 6.37084L65.4754 4.28195L60.0756 2.13064V2.12891Z" fill="#730313"/>
<path d="M60.0742 2.13027C62.8226 1.83904 65.2591 2.05573 67.174 2.73354C67.174 2.73354 73.0884 4.44973 72.1423 15.5634C71.1978 26.6753 77.1105 28.3915 77.1105 28.3915C74.3621 28.6827 71.9257 28.466 70.0125 27.7882C70.0125 27.7882 64.0981 26.072 65.0442 14.9584C65.9887 3.84646 60.0742 2.13027 60.0742 2.13027Z" fill="#AA192E"/>
</g>
<defs>
<clipPath id="clip0_229_38541">
<rect width="82" height="78" fill="white" transform="translate(0.5)"/>
</clipPath>
</defs>
</svg>
