<svg width="24" height="20" viewBox="0 0 24 20" fill="none" xmlns="http://www.w3.org/2000/svg">
<path d="M23.8138 15.4481C23.7506 15.3294 22.3423 12.7586 19.024 12.2683C20.7245 10.5464 20.899 8.6068 20.9072 8.50185L20.9411 8.06515L20.5643 7.84182C20.4626 7.78149 18.3438 6.56051 15.4819 7.43388C15.0443 7.14759 14.5197 6.93482 14.0357 6.78079C13.6512 6.65848 13.2302 6.55268 12.782 6.46344C13.5777 5.87238 14.0574 5.08051 14.0574 4.19852C14.0574 2.3261 11.8961 0.859375 9.13702 0.859375C6.37792 0.859375 4.21663 2.3261 4.21663 4.19852C4.21663 5.08046 4.69631 5.87238 5.49198 6.46344C5.04387 6.55268 4.62275 6.65843 4.23826 6.78079C3.12919 7.13365 1.80715 7.79509 1.80715 8.94221C1.80715 10.0336 3.00387 10.6852 4.07532 11.0498C3.65761 11.1788 3.26159 11.3246 2.89174 11.4864C1.02697 12.3022 0 13.4577 0 14.74C0 16.0223 1.02697 17.1778 2.89174 17.9937C4.57151 18.7286 6.78947 19.1333 9.13697 19.1333C11.1721 19.1333 13.1095 18.8289 14.6836 18.2692C15.5249 18.7399 16.6009 19.1309 18.1136 19.1309V19.1329C21.9763 19.1329 23.7245 16.262 23.798 16.1379L24 15.7975L23.8138 15.4481ZM16.4668 8.94217C16.4668 8.83848 16.4557 8.73888 16.4352 8.64298C17.0751 8.51255 17.7191 8.49378 18.3621 8.58987C18.7981 8.65499 19.1564 8.76355 19.4121 8.85936C19.3435 9.12364 19.2263 9.47918 19.0288 9.87338C18.5353 10.8589 17.7717 11.6582 16.7582 12.2548C16.3693 11.9747 15.9093 11.7169 15.3822 11.4864C15.0123 11.3246 14.6163 11.1788 14.1986 11.0498C15.2701 10.6851 16.4668 10.0336 16.4668 8.94217ZM6.52843 2.93185C7.2045 2.50926 8.15533 2.26694 9.13702 2.26694C10.1187 2.26694 11.0695 2.50931 11.7456 2.93185C12.0833 3.14293 12.6498 3.58812 12.6498 4.19856C12.6498 4.80896 12.0833 5.2542 11.7456 5.46528C11.0695 5.88781 10.1187 6.13019 9.13702 6.13019C8.15533 6.13019 7.20455 5.88781 6.52843 5.46528C6.19072 5.2542 5.62415 4.809 5.62415 4.19856C5.62415 3.58812 6.19067 3.14288 6.52843 2.93185ZM3.21453 8.94442C3.2279 8.86415 3.54759 8.45944 4.77462 8.08804C5.94712 7.73311 7.49642 7.53766 9.13697 7.53766C10.7775 7.53766 12.3268 7.73311 13.4993 8.08804C14.7154 8.45611 15.0402 8.85692 15.059 8.94221C15.0402 9.02751 14.7154 9.42832 13.4994 9.79639C12.3269 10.1513 10.7776 10.3468 9.13697 10.3468C7.49633 10.3468 5.94708 10.1513 4.77457 9.79639C3.5475 9.42495 3.2279 9.02024 3.21453 8.94442ZM9.13697 17.7258C6.9793 17.7258 4.96172 17.363 3.45587 16.7042C2.17325 16.143 1.40751 15.4088 1.40751 14.74C1.40751 14.0713 2.17325 13.337 3.45587 12.7759C4.96172 12.1171 6.9793 11.7542 9.13697 11.7542C11.2946 11.7542 13.3122 12.1171 14.8181 12.7759C16.1007 13.337 16.8664 14.0712 16.8664 14.74C16.8664 15.4088 16.1007 16.143 14.8181 16.7041C13.3122 17.363 11.2946 17.7258 9.13697 17.7258ZM17.9653 17.7238C17.4091 17.711 16.8819 17.6266 16.3855 17.4729C17.6114 16.7171 18.2739 15.7695 18.2739 14.74C18.2739 14.3447 18.176 13.9616 17.9863 13.5966C18.0109 13.5969 18.0352 13.5963 18.0599 13.5969C19.375 13.627 20.5297 14.0535 21.4917 14.8645C21.8812 15.1929 22.1611 15.5228 22.3384 15.7609C21.8039 16.4156 20.3945 17.7797 17.9653 17.7238Z" fill="white"/>
</svg>
