<svg width="25" height="24" viewBox="0 0 25 24" fill="none" xmlns="http://www.w3.org/2000/svg">
<g opacity="0.4">
<path d="M6.5 21C5.4 21 4.45833 20.6083 3.675 19.825C2.89167 19.0417 2.5 18.1 2.5 17C2.5 15.9 2.89167 14.9583 3.675 14.175C4.45833 13.3917 5.4 13 6.5 13C7.6 13 8.54167 13.3917 9.325 14.175C10.1083 14.9583 10.5 15.9 10.5 17C10.5 18.1 10.1083 19.0417 9.325 19.825C8.54167 20.6083 7.6 21 6.5 21ZM18.5 21C17.4 21 16.4583 20.6083 15.675 19.825C14.8917 19.0417 14.5 18.1 14.5 17C14.5 15.9 14.8917 14.9583 15.675 14.175C16.4583 13.3917 17.4 13 18.5 13C19.6 13 20.5417 13.3917 21.325 14.175C22.1083 14.9583 22.5 15.9 22.5 17C22.5 18.1 22.1083 19.0417 21.325 19.825C20.5417 20.6083 19.6 21 18.5 21ZM12.5 14.9C11.9667 14.9 11.5167 14.7167 11.15 14.35C10.7833 13.9833 10.6 13.5333 10.6 13C10.6 12.4667 10.7833 12.0167 11.15 11.65C11.5167 11.2833 11.9667 11.1 12.5 11.1C13.0333 11.1 13.4833 11.2833 13.85 11.65C14.2167 12.0167 14.4 12.4667 14.4 13C14.4 13.5333 14.2167 13.9833 13.85 14.35C13.4833 14.7167 13.0333 14.9 12.5 14.9ZM12.5 10C11.4 10 10.4583 9.60833 9.675 8.825C8.89167 8.04167 8.5 7.1 8.5 6C8.5 4.9 8.89167 3.95833 9.675 3.175C10.4583 2.39167 11.4 2 12.5 2C13.6 2 14.5417 2.39167 15.325 3.175C16.1083 3.95833 16.5 4.9 16.5 6C16.5 7.1 16.1083 8.04167 15.325 8.825C14.5417 9.60833 13.6 10 12.5 10Z" fill="white"/>
</g>
</svg>
