<svg width="25" height="24" viewBox="0 0 25 24" fill="none" xmlns="http://www.w3.org/2000/svg">
<path d="M14.4994 5.00109C14.4994 5.53109 14.2934 6.01309 13.9564 6.37109L16.5804 9.65109C16.6161 9.69585 16.666 9.72702 16.7219 9.7394C16.7778 9.75178 16.8362 9.74461 16.8874 9.71909L19.5374 8.39309C19.4802 8.10297 19.4878 7.80377 19.5599 7.51695C19.6319 7.23014 19.7665 6.96282 19.954 6.73417C20.1416 6.50553 20.3774 6.32122 20.6446 6.19448C20.9118 6.06774 21.2037 6.00169 21.4994 6.00109C21.9911 6.00119 22.4655 6.18241 22.8321 6.51012C23.1986 6.83784 23.4316 7.28909 23.4865 7.77769C23.5414 8.26629 23.4144 8.758 23.1298 9.15891C22.8451 9.55983 22.4228 9.84184 21.9434 9.95109L20.1394 19.5741C20.0641 19.9752 19.851 20.3373 19.5369 20.5979C19.2228 20.8585 18.8275 21.0011 18.4194 21.0011H6.57942C6.17131 21.0011 5.77604 20.8585 5.46196 20.5979C5.14788 20.3373 4.93474 19.9752 4.85942 19.5741L3.05542 9.95109C2.67203 9.86368 2.32291 9.66519 2.05172 9.38044C1.78053 9.09569 1.5993 8.73731 1.53068 8.35011C1.46207 7.96292 1.50912 7.56409 1.66595 7.20349C1.82277 6.84289 2.08242 6.53652 2.41243 6.32268C2.74243 6.10885 3.12815 5.99705 3.52136 6.00125C3.91456 6.00545 4.29781 6.12546 4.62317 6.34629C4.94854 6.56712 5.20158 6.87897 5.35067 7.24284C5.49976 7.60671 5.53828 8.00645 5.46142 8.39209L8.11142 9.71809C8.16264 9.74361 8.22107 9.75078 8.27695 9.7384C8.33282 9.72602 8.38276 9.69485 8.41842 9.65009L11.0424 6.37009C10.8189 6.13235 10.6569 5.84351 10.5706 5.52877C10.4843 5.21403 10.4763 4.88296 10.5474 4.56445C10.6185 4.24593 10.7664 3.94965 10.9783 3.70144C11.1902 3.45324 11.4596 3.26066 11.763 3.1405C12.0665 3.02034 12.3947 2.97626 12.7191 3.0121C13.0434 3.04794 13.3541 3.16261 13.624 3.34611C13.8939 3.52961 14.1147 3.77636 14.2673 4.06483C14.4199 4.35331 14.4996 4.67474 14.4994 5.00109ZM12.4994 17.0011C13.0298 17.0011 13.5386 16.7904 13.9136 16.4153C14.2887 16.0402 14.4994 15.5315 14.4994 15.0011C14.4994 14.4707 14.2887 13.962 13.9136 13.5869C13.5386 13.2118 13.0298 13.0011 12.4994 13.0011C11.969 13.0011 11.4603 13.2118 11.0852 13.5869C10.7101 13.962 10.4994 14.4707 10.4994 15.0011C10.4994 15.5315 10.7101 16.0402 11.0852 16.4153C11.4603 16.7904 11.969 17.0011 12.4994 17.0011Z" fill="#6A6768"/>
</svg>
