<svg width="48" height="37" viewBox="0 0 48 37" fill="none" xmlns="http://www.w3.org/2000/svg">
<path d="M18.4209 36.8419C8.26633 36.8419 0 28.5804 0 18.4209C0 8.26151 8.26148 0 18.4209 0C28.5803 0 36.8417 8.26151 36.8417 18.4209C36.8417 28.5804 28.5803 36.8419 18.4209 36.8419ZM18.4209 5.34425C11.2078 5.34425 5.33938 11.2127 5.33938 18.4258C5.33938 25.6388 11.2078 31.5073 18.4209 31.5073C25.6339 31.5073 31.5024 25.6388 31.5024 18.4258C31.5024 11.2127 25.6339 5.34425 18.4209 5.34425Z" fill="white"/>
<path d="M42.0604 13.8943C45.1594 13.8943 47.6716 11.3821 47.6716 8.2831C47.6716 5.18411 45.1594 2.67188 42.0604 2.67188C38.9614 2.67188 36.4492 5.18411 36.4492 8.2831C36.4492 11.3821 38.9614 13.8943 42.0604 13.8943Z" fill="white"/>
</svg>
