<svg width="72" height="72" viewBox="0 0 72 72" fill="none" xmlns="http://www.w3.org/2000/svg">
<g clip-path="url(#clip0_202_18879)">
<path d="M35.5281 4.88169e-05C27.7002 -0.0118648 19.9318 2.15641 13.6826 6.96952C8.15425 11.2346 4.16881 17.2271 1.98844 23.8392C-0.191934 30.4513 -0.585116 37.6054 0.820808 44.4021C2.22673 51.1989 5.55687 57.6501 10.6087 62.4751C16.3038 67.9137 23.7862 70.8802 31.5486 71.726C39.8471 72.6315 48.5031 71.3924 55.6935 66.9725C61.7938 63.2197 66.3929 57.4654 69.0975 50.8653C71.8021 44.2651 72.6004 36.9263 71.5459 29.8854C70.4915 22.8444 67.5069 16.1251 62.6755 10.8891C57.3378 5.10504 50.0103 1.62626 42.2658 0.488507C40.0318 0.160883 37.7859 4.88169e-05 35.5281 4.88169e-05C34.8549 4.88169e-05 34.8549 1.04249 35.5281 1.04249C43.6062 1.0544 51.7498 3.13929 58.1956 8.1728C63.6942 12.4677 67.5545 18.5496 69.4728 25.2271C71.391 31.9047 71.4447 39.0112 69.717 45.6888C67.9894 52.3664 64.4389 58.5555 59.2203 63.0946C53.4059 68.1579 45.87 70.6836 38.2208 70.9338C30.1248 71.1959 21.8441 69.4505 15.1064 64.7983C9.5006 60.9263 5.35432 55.2197 3.12033 48.8102C0.886338 42.4006 0.469327 35.4967 1.75015 28.8906C3.03097 22.2845 6.00366 16.0298 10.6265 11.1393C15.6188 5.84964 22.2909 2.56148 29.4576 1.47138C31.4652 1.16758 33.5026 1.04249 35.534 1.04249C36.2072 1.04249 36.2072 4.88169e-05 35.534 4.88169e-05H35.5281Z" fill="white"/>
<circle cx="35.5527" cy="2.32224" r="0.595681" fill="white"/>
<path d="M33.647 2.35976C-8.16728 4.20042 -9.50172 70.8989 37.9661 69.6718C79.7983 68.4387 81.2042 3.24733 36.5125 2.33594" stroke="white" stroke-width="1.19136" stroke-linecap="round" stroke-linejoin="round"/>
<circle cx="35.5527" cy="2.32224" r="0.595681" fill="white"/>
<path d="M6.81443 37.7768C6.12934 42.4053 7.56506 47.2958 11.8364 49.7083C16.1078 52.1208 21.1537 51.0546 23.5366 46.8848C25.5799 43.3107 25.0021 38.6584 22.643 35.3762C19.7894 31.409 14.3802 29.9317 9.75139 31.2184C7.2791 31.9034 5.08086 33.4581 3.94897 35.8051C2.81708 38.1521 2.82304 40.7076 3.4426 43.1379C3.55579 43.5728 4.10386 43.4954 4.24684 43.1379C4.92001 41.476 5.61106 39.677 6.96932 38.444C8.58375 36.9786 10.8237 36.931 12.7956 37.61C14.5113 38.1998 16.3044 39.3137 17.4304 40.7671C17.9129 41.3866 18.3001 42.2325 17.5078 42.7508C16.9359 43.126 16.0959 43.3584 15.4168 43.2333C13.4926 42.8759 14.696 39.4566 15.1249 38.3606C15.3215 37.8602 14.5113 37.6458 14.3206 38.1402C13.713 39.7009 12.8313 42.4648 14.4755 43.7277C15.5895 44.5855 18.2346 43.954 18.729 42.584C19.4261 40.648 16.7155 38.7656 15.3572 37.9257C13.2066 36.5914 10.4305 35.7813 7.99398 36.8118C5.55744 37.8423 4.39577 40.5527 3.4426 42.9176H4.24684C3.21026 38.8669 4.38981 34.5006 8.38121 32.6123C12.3726 30.724 17.9129 31.4924 21.0405 34.7448C23.5545 37.3598 24.6327 41.3866 23.5187 44.8654C22.9051 46.7716 21.6183 48.4812 19.8073 49.3867C17.9963 50.2921 15.6789 50.3159 13.719 49.6487C8.82205 47.9808 6.90975 42.7925 7.61867 37.9972C7.69612 37.473 6.89188 37.2467 6.81443 37.7768Z" fill="white"/>
<path d="M28.5345 23.4472C25.824 20.8023 21.9279 19.8433 18.2344 20.4628C14.5408 21.0823 11.3775 23.334 9.38776 26.4673C8.24395 28.2781 7.49929 30.3154 7.07036 32.4062C6.96313 32.9304 7.76737 33.1568 7.8746 32.6266C8.7682 28.296 11.1392 24.2275 15.2438 22.2677C19.3484 20.3079 24.6265 20.8023 27.9448 24.0369C28.332 24.4122 28.9218 23.8224 28.5345 23.4472Z" fill="white"/>
<path d="M3.91737 39.3749C4.00076 39.3749 4.08416 39.3749 4.16755 39.3927L4.05437 39.3749C4.19138 39.3927 4.32243 39.4285 4.44752 39.4821L4.34626 39.4404C4.41774 39.4702 4.48922 39.5059 4.5607 39.5536C4.59049 39.5714 4.62027 39.5953 4.65601 39.6191C4.53688 39.5357 4.65601 39.6191 4.67984 39.6489C4.73941 39.7085 4.79897 39.768 4.85259 39.8335C4.9062 39.8991 4.79302 39.7501 4.84067 39.8157C4.85259 39.8335 4.8645 39.8514 4.87641 39.8693C4.9062 39.911 4.93002 39.9586 4.95981 40.0003C5.06703 40.191 5.34105 40.2744 5.53166 40.1493C5.72228 40.0242 5.79972 39.7799 5.68058 39.5774C5.49592 39.2617 5.24574 38.9817 4.92407 38.7971C4.6024 38.6124 4.26882 38.5469 3.92332 38.5469C3.70292 38.5469 3.49443 38.7375 3.50635 38.9639C3.51826 39.1902 3.69101 39.3808 3.92332 39.3808L3.91737 39.3749Z" fill="white"/>
<path d="M4.4952 36.4098C4.62625 36.3979 4.7573 36.3979 4.89431 36.4098C4.95983 36.4098 5.03131 36.4217 5.09684 36.4277C5.13258 36.4277 5.18023 36.4396 5.11471 36.4277C5.15045 36.4277 5.19215 36.4396 5.22789 36.4455C5.35894 36.4694 5.48999 36.4991 5.62104 36.5408C5.68656 36.5587 5.75804 36.5825 5.82357 36.6064C5.85335 36.6183 5.88314 36.6302 5.91292 36.6421C5.94271 36.654 5.93675 36.654 5.90101 36.6421C5.91888 36.6481 5.93675 36.66 5.95462 36.6659C6.07375 36.7195 6.19289 36.7851 6.30607 36.8566C6.36564 36.8923 6.41925 36.934 6.47882 36.9757C6.51456 37.0055 6.44308 36.9399 6.49669 36.9936C6.52647 37.0174 6.5503 37.0412 6.58008 37.065C6.62774 37.1067 6.66944 37.1484 6.71113 37.1961C6.73496 37.2259 6.75879 37.2497 6.78262 37.2795C6.86005 37.3688 6.74687 37.214 6.80644 37.3093C6.84218 37.3629 6.87197 37.4105 6.90175 37.4641C6.91962 37.4939 6.93749 37.5297 6.95536 37.5595C6.99706 37.6369 6.93749 37.5058 6.97323 37.5952C7.05663 37.8037 7.2532 37.9526 7.48552 37.8871C7.68209 37.8335 7.8608 37.5833 7.7774 37.3748C7.27107 36.106 5.79378 35.4924 4.48924 35.5878C4.26288 35.6056 4.07227 35.7665 4.07227 36.0047C4.07227 36.2192 4.26288 36.4396 4.48924 36.4217L4.4952 36.4098Z" fill="white"/>
<path d="M7.38182 33.195C7.31034 33.1891 7.44735 33.2069 7.46522 33.2129C7.51287 33.2248 7.56053 33.2367 7.60818 33.2486C7.64988 33.2605 7.68562 33.2725 7.72732 33.2903C7.66179 33.2665 7.76901 33.3082 7.78093 33.3142C7.85241 33.3499 7.92985 33.3916 7.99537 33.4393C8.0192 33.4571 8.04303 33.469 8.0609 33.4869C8.03707 33.469 8.03707 33.469 8.0609 33.4869C8.09664 33.5107 8.12642 33.5405 8.15621 33.5703C8.43022 33.8205 8.60297 34.0707 8.77571 34.4221C9.07951 35.0416 9.22843 35.7803 9.19269 36.4891C9.18078 36.7155 9.39522 36.9061 9.60967 36.9061C9.84794 36.9061 10.0147 36.7155 10.0266 36.4891C10.116 34.8212 9.26417 32.5815 7.38182 32.3611C7.15546 32.3372 6.96484 32.5696 6.96484 32.778C6.96484 33.0282 7.15546 33.1712 7.38182 33.195Z" fill="white"/>
<path d="M11.5557 31.6651C12.068 32.4097 12.342 33.2973 12.4731 34.1848C12.6041 35.0724 12.5922 35.948 12.3361 36.782C12.1812 37.2943 12.9854 37.5147 13.1402 37.0024C13.4321 36.0493 13.4321 35.0188 13.2891 34.0419C13.1462 33.065 12.8424 32.0642 12.2705 31.2422C11.9667 30.8014 11.246 31.2183 11.5498 31.6651H11.5557Z" fill="white"/>
<path d="M16.2894 31.9812C16.7421 33.9827 16.897 36.4905 15.4912 38.1703C15.1517 38.5813 15.7354 39.1711 16.0809 38.76C17.6952 36.83 17.6237 34.0899 17.0936 31.7608C16.9744 31.2366 16.1703 31.457 16.2894 31.9812Z" fill="white"/>
<path d="M17.9598 40.5966C20.557 40.0307 21.8019 37.0999 21.7245 34.6755C21.7066 34.1394 20.8727 34.1394 20.8905 34.6755C20.9561 36.7425 19.9732 39.3099 17.7334 39.7924C17.2092 39.9056 17.4296 40.7098 17.9538 40.5966H17.9598Z" fill="white"/>
<path d="M17.986 43.1495C20.2019 43.8941 22.5608 43.489 24.5682 42.3632C25.0388 42.1011 24.6159 41.3803 24.1453 41.6424C22.3166 42.661 20.2138 43.0184 18.2064 42.3393C17.6941 42.1666 17.4796 42.9708 17.986 43.1435V43.1495Z" fill="white"/>
<path d="M16.2086 44.0123C16.6732 45.15 17.3225 46.2223 18.2399 47.0503C19.1572 47.8783 20.295 48.4203 21.5221 48.5871C21.7425 48.6169 21.9688 48.5335 22.0344 48.2952C22.088 48.0987 21.9688 47.8127 21.7425 47.7829C20.6583 47.634 19.6457 47.1932 18.8237 46.4605C18.0016 45.7278 17.4178 44.7926 17.0068 43.7919C16.9234 43.5834 16.7328 43.4345 16.4945 43.5C16.298 43.5536 16.1193 43.8038 16.2027 44.0123H16.2086Z" fill="white"/>
<path d="M14.914 43.2113C13.8835 43.9023 13.5142 45.1652 13.3652 46.3387C13.2163 47.5122 13.2699 48.7631 13.4903 49.9485C13.5916 50.4727 14.3898 50.2523 14.2945 49.7281C14.1039 48.6976 14.0622 47.6194 14.1754 46.5769C14.2707 45.6596 14.5209 44.4861 15.3429 43.9321C15.7837 43.6343 15.3667 42.9135 14.92 43.2113H14.914Z" fill="white"/>
<path d="M13.7286 41.9219C11.5424 41.9338 9.20137 42.732 7.93257 44.6024C7.62877 45.0492 8.34955 45.4662 8.65335 45.0254C9.7494 43.4111 11.8641 42.7677 13.7286 42.7618C14.2647 42.7618 14.2647 41.9278 13.7286 41.9278V41.9219Z" fill="white"/>
<path d="M14.0897 39.2112C12.946 38.8598 11.7665 38.6036 10.5692 38.5798C9.37186 38.556 8.21624 38.7883 7.10827 39.2112C6.61386 39.4018 6.8283 40.206 7.32868 40.0154C8.37112 39.6163 9.4493 39.3899 10.5632 39.4137C11.6771 39.4376 12.7911 39.6878 13.8633 40.0154C14.3756 40.1703 14.596 39.3661 14.0837 39.2112H14.0897Z" fill="white"/>
<path d="M22.0476 21.0609C22.6671 21.871 22.9173 22.9254 23.1079 23.9023C23.376 25.2843 23.4594 26.6961 23.4653 28.1019C23.4653 30.4786 23.3879 33.457 22.0536 35.5241C21.7617 35.9768 22.4825 36.3937 22.7743 35.947C24.1861 33.7608 24.3052 30.6276 24.3052 28.1078C24.3052 26.6544 24.204 25.1949 23.9359 23.7653C23.7334 22.699 23.4534 21.5255 22.7803 20.6439C22.4586 20.221 21.7319 20.6439 22.0595 21.0669L22.0476 21.0609Z" fill="white"/>
<path d="M16.4149 21.5304C17.3204 23.2937 18.1424 25.1164 18.75 27.0047C19.304 28.7322 19.8699 30.7933 19.2623 32.5803C19.0895 33.0867 19.8937 33.3071 20.0665 32.8007C20.7098 30.9303 20.1737 28.762 19.6078 26.9392C18.9764 24.9258 18.1007 22.9839 17.1417 21.1075C16.8974 20.631 16.1767 21.0539 16.4209 21.5304H16.4149Z" fill="white"/>
<path d="M11.4704 25.2679C12.7094 25.5003 13.728 26.6261 14.4488 27.5911C15.2172 28.6157 15.9976 29.9023 16.1048 31.2128C16.1465 31.743 16.9864 31.749 16.9387 31.2128C16.8137 29.7117 16.0095 28.2761 15.116 27.1026C14.276 25.9947 13.1204 24.7378 11.6908 24.4697C11.1666 24.3685 10.9402 25.1726 11.4704 25.2739V25.2679Z" fill="white"/>
<path d="M8.7564 29.3083C10.0788 29.7014 11.3297 30.3269 12.2828 31.3455C12.6522 31.7386 13.2359 31.1489 12.8726 30.7558C11.8301 29.6359 10.4362 28.9389 8.98276 28.5041C8.46452 28.3492 8.24411 29.1534 8.76236 29.3083H8.7564Z" fill="white"/>
<path d="M64.1961 37.9978C64.8216 42.2152 63.511 46.7007 59.6566 48.9285C57.8099 50.0008 55.552 50.4177 53.461 49.9055C51.37 49.3932 49.833 48.041 48.862 46.2122C47.1344 42.9479 47.748 38.8198 49.839 35.8652C52.4185 32.2256 57.375 30.8734 61.6047 31.9516C63.9757 32.5592 66.0667 33.9769 67.145 36.2167C68.1458 38.3016 68.1279 40.7081 67.5679 42.9062H68.3722C67.5203 40.7975 66.6088 38.4803 64.6012 37.2055C62.3851 35.7997 59.603 36.2703 57.3809 37.3902C56.3682 37.9025 55.415 38.5577 54.581 39.3261C53.8661 39.9814 53.05 40.869 52.9964 41.8876C52.907 43.627 55.4746 44.4133 56.8448 43.9665C59.1502 43.2219 58.0899 39.6657 57.4941 38.1229C57.3035 37.6285 56.4933 37.8429 56.6899 38.3433C57.1546 39.5406 58.0898 41.9531 56.8865 43.0015C56.3682 43.4542 55.4269 43.216 54.855 43.0015C54.0627 42.7037 53.5861 42.2152 53.9912 41.3455C54.7121 39.8087 56.6422 38.6232 58.1196 37.9501C60.02 37.0745 62.3255 36.7469 64.1782 37.9203C66.0309 39.0938 66.7994 41.2323 67.562 43.1206C67.7049 43.4721 68.253 43.5555 68.3662 43.1206C69.504 38.6828 68.1398 33.8459 63.7433 31.8206C59.3468 29.7952 53.4789 30.6411 50.119 34.2033C47.3548 37.134 46.1991 41.685 47.6407 45.5034C48.4092 47.5346 49.8628 49.3157 51.8645 50.2212C53.8661 51.1266 56.3861 51.1445 58.5188 50.3582C60.9077 49.4825 62.9153 47.6895 64.0293 45.4021C65.1433 43.1147 65.3876 40.3448 65.0003 37.7536C64.9229 37.2234 64.1186 37.4498 64.1961 37.974V37.9978Z" fill="white"/>
<path d="M43.8706 24.0371C47.1888 20.8026 52.461 20.3022 56.5715 22.2679C60.6821 24.2337 63.0531 28.2962 63.9407 32.6268C64.048 33.151 64.8522 32.9306 64.745 32.4064C64.0003 28.7906 62.2667 25.3119 59.3179 23.0006C56.369 20.6894 52.4908 19.7959 48.839 20.5345C46.742 20.9574 44.8118 21.9582 43.2808 23.4533C42.8936 23.8286 43.4833 24.4183 43.8706 24.0431V24.0371Z" fill="white"/>
<path d="M67.8941 38.5372C67.5426 38.5372 67.1971 38.6146 66.8874 38.7874C66.5776 38.9601 66.3155 39.252 66.1309 39.5677C66.0236 39.7584 66.0832 40.0324 66.2798 40.1396C66.4764 40.2468 66.7325 40.1932 66.8516 39.9907C66.8755 39.949 66.8993 39.9073 66.9291 39.8656C66.941 39.8477 66.9589 39.8239 66.9708 39.806C66.9886 39.7822 67.0422 39.7286 66.9589 39.8239C67.0125 39.7584 67.0661 39.6988 67.1316 39.6392C67.1614 39.6094 67.2805 39.532 67.1554 39.6094C67.1852 39.5856 67.215 39.5677 67.2507 39.5439C67.3163 39.5022 67.3877 39.4665 67.4652 39.4307L67.3639 39.4724C67.489 39.4188 67.6201 39.3831 67.7571 39.3652L67.6439 39.3831C67.7273 39.3712 67.8107 39.3652 67.8941 39.3652C68.1145 39.3652 68.323 39.1746 68.311 38.9482C68.2991 38.7219 68.1264 38.5312 67.8941 38.5312V38.5372Z" fill="white"/>
<path d="M67.3155 35.5744C66.0109 35.4791 64.5337 36.0927 64.0273 37.3615C63.9439 37.5699 64.1167 37.8201 64.3192 37.8737C64.5575 37.9393 64.7481 37.7903 64.8315 37.5819C64.8732 37.4746 64.7898 37.6474 64.8494 37.5461C64.8613 37.5163 64.8791 37.4925 64.8911 37.4627C64.9208 37.4032 64.9625 37.3495 64.9983 37.29C65.0459 37.2185 64.9625 37.3317 65.0221 37.2602C65.04 37.2364 65.0638 37.2125 65.0817 37.1887C65.1293 37.1411 65.177 37.0874 65.2246 37.0457C65.2485 37.0219 65.2723 37.004 65.2961 36.9862C65.32 36.9683 65.3616 36.9326 65.314 36.9683C65.3676 36.9266 65.4272 36.8849 65.4867 36.8492C65.6059 36.7717 65.731 36.7062 65.8561 36.6466C65.8799 36.6347 65.9335 36.6109 65.8799 36.6347C65.9156 36.6228 65.9514 36.6049 65.9871 36.593C66.0467 36.5692 66.1063 36.5513 66.1718 36.5335C66.3088 36.4918 66.4458 36.462 66.5828 36.4322C66.6126 36.4322 66.6483 36.4203 66.6781 36.4143C66.7258 36.4084 66.6185 36.4143 66.696 36.4143C66.7675 36.4084 66.8449 36.4024 66.9164 36.3965C67.0474 36.3905 67.1785 36.3965 67.3095 36.3965C67.5359 36.4143 67.7265 36.1939 67.7265 35.9795C67.7265 35.7412 67.5359 35.5804 67.3095 35.5625L67.3155 35.5744Z" fill="white"/>
<path d="M64.4336 32.3594C62.5572 32.5798 61.7054 34.8136 61.7888 36.4874C61.8007 36.7138 61.9734 36.9044 62.2057 36.9044C62.4202 36.9044 62.6346 36.7138 62.6227 36.4874C62.587 35.7786 62.7299 35.0459 63.0397 34.4204C63.2125 34.0749 63.3733 33.8248 63.6413 33.5805C63.6711 33.5507 63.7069 33.5269 63.7366 33.4971C63.7724 33.4673 63.7783 33.4614 63.7545 33.4852C63.7724 33.4733 63.7903 33.4614 63.8081 33.4495C63.8856 33.4018 63.9571 33.3542 64.0404 33.3125C64.1298 33.2708 64.1 33.2827 64.2132 33.2469C64.2549 33.235 64.2966 33.2231 64.3383 33.2172C64.3562 33.2172 64.5051 33.1874 64.4396 33.1993C64.6659 33.1755 64.8565 33.0265 64.8565 32.7823C64.8565 32.5798 64.6659 32.3415 64.4396 32.3653L64.4336 32.3594Z" fill="white"/>
<path d="M59.5418 31.2462C58.9759 32.0683 58.6661 33.0631 58.5232 34.0459C58.3802 35.0288 58.3802 36.0534 58.6721 37.0065C58.827 37.5188 59.6311 37.2984 59.4763 36.7861C59.2201 35.9521 59.2142 35.0467 59.3393 34.1889C59.4644 33.3311 59.7443 32.4138 60.2566 31.6692C60.5604 31.2284 59.8396 30.8114 59.5358 31.2462H59.5418Z" fill="white"/>
<path d="M54.7173 31.7608C54.1871 34.0899 54.1156 36.83 55.7299 38.76C56.0754 39.1711 56.6651 38.5813 56.3197 38.1703C54.9138 36.4964 55.0687 33.9827 55.5214 31.9812C55.6406 31.457 54.8364 31.2366 54.7173 31.7608Z" fill="white"/>
<path d="M54.0783 39.7924C51.8445 39.304 50.8617 36.7425 50.9272 34.6755C50.9451 34.1394 50.1111 34.1394 50.0932 34.6755C50.0158 37.1059 51.2667 40.0367 53.8579 40.5966C54.3821 40.7098 54.6025 39.9056 54.0783 39.7924Z" fill="white"/>
<path d="M53.6094 42.3472C51.602 43.0262 49.4933 42.6688 47.6705 41.6502C47.1999 41.3881 46.7829 42.1089 47.2475 42.371C49.2609 43.4909 51.6198 43.9019 53.8298 43.1573C54.3361 42.9845 54.1157 42.1804 53.6094 42.3531V42.3472Z" fill="white"/>
<path d="M54.7997 43.7919C54.3887 44.7926 53.787 45.7338 52.9828 46.4605C52.1787 47.1873 51.1541 47.634 50.064 47.7829C49.8436 47.8127 49.7185 48.0987 49.7721 48.2952C49.8377 48.5335 50.064 48.6169 50.2844 48.5871C51.5115 48.4144 52.6493 47.8783 53.5666 47.0503C54.484 46.2223 55.1333 45.15 55.5979 44.0123C55.6813 43.8038 55.5026 43.5536 55.306 43.5C55.0677 43.4345 54.8771 43.5834 54.7937 43.7919H54.7997Z" fill="white"/>
<path d="M56.4823 43.9321C57.3043 44.4861 57.5545 45.6596 57.6498 46.5769C57.7571 47.6194 57.7213 48.6976 57.5307 49.7281C57.4354 50.2523 58.2336 50.4786 58.3349 49.9485C58.5553 48.7631 58.6148 47.536 58.46 46.3387C58.3051 45.1413 57.9417 43.9083 56.9112 43.2113C56.4644 42.9135 56.0475 43.6343 56.4883 43.9321H56.4823Z" fill="white"/>
<path d="M58.0895 42.754C59.9599 42.7599 62.0686 43.4033 63.1707 45.0176C63.4685 45.4584 64.1952 45.0414 63.8914 44.5946C62.6226 42.7242 60.2756 41.926 58.0954 41.9141C57.5593 41.9141 57.5593 42.748 58.0954 42.748L58.0895 42.754Z" fill="white"/>
<path d="M57.9512 40.0154C59.0235 39.6878 60.1255 39.4316 61.2513 39.4137C62.3771 39.3959 63.4494 39.6163 64.4859 40.0154C64.9862 40.206 65.2066 39.4018 64.7063 39.2112C63.6042 38.7883 62.4308 38.556 61.2453 38.5798C60.0599 38.6036 58.8686 38.8598 57.7249 39.2112C57.2126 39.3661 57.433 40.1762 57.9453 40.0154H57.9512Z" fill="white"/>
<path d="M49.0504 20.6395C48.3892 21.4972 48.1093 22.641 47.9067 23.6834C47.6268 25.1369 47.5255 26.6261 47.5195 28.1033C47.5195 30.6231 47.6327 33.7564 49.0445 35.9425C49.3364 36.3893 50.0571 35.9723 49.7653 35.5196C48.4309 33.4526 48.3475 30.4742 48.3535 28.0974C48.3535 26.7214 48.4428 25.3334 48.693 23.9812C48.8836 22.9745 49.1338 21.8844 49.7653 21.0564C50.0929 20.6335 49.3661 20.2165 49.0445 20.6335L49.0504 20.6395Z" fill="white"/>
<path d="M54.68 21.1075C53.715 22.9839 52.8453 24.9258 52.2139 26.9392C51.642 28.762 51.1119 30.9243 51.7552 32.8007C51.9279 33.3071 52.7321 33.0867 52.5594 32.5803C51.9458 30.7992 52.5177 28.7322 53.0716 27.0047C53.6792 25.1105 54.5013 23.2937 55.4067 21.5304C55.6509 21.0539 54.9302 20.631 54.6859 21.1075H54.68Z" fill="white"/>
<path d="M60.1206 24.4679C58.6909 24.7419 57.5293 25.9988 56.6954 27.1008C55.8019 28.2802 54.9977 29.7158 54.8726 31.211C54.8309 31.7471 55.6649 31.7411 55.7066 31.211C55.8138 29.9005 56.5941 28.6138 57.3626 27.5893C58.0833 26.6242 59.1019 25.5044 60.341 25.2661C60.8652 25.1648 60.6448 24.3607 60.1206 24.4619V24.4679Z" fill="white"/>
<path d="M62.8404 28.5041C61.3869 28.933 59.9931 29.6299 58.9506 30.7558C58.5872 31.1489 59.171 31.7386 59.5403 31.3455C60.4875 30.3269 61.7444 29.7014 63.0668 29.3083C63.5791 29.1534 63.3587 28.3492 62.8464 28.5041H62.8404Z" fill="white"/>
<path d="M31.4587 55.105C31.6732 56.7967 32.8109 58.0714 34.4669 58.4884C36.0097 58.8756 37.7372 58.5361 38.9762 57.5294C39.6911 56.9456 40.1795 56.1176 40.3523 55.2181C40.4535 54.6939 39.6494 54.4676 39.5481 54.9977C39.0299 57.6485 35.3783 58.6969 33.3411 57.035C32.7514 56.5525 32.388 55.8615 32.2927 55.105C32.2272 54.5808 31.3932 54.5748 31.4587 55.105Z" fill="white"/>
<path d="M36.1188 22.4589C33.7954 20.2191 30.096 20.38 27.5879 22.2444C26.2416 23.2392 25.5744 24.5616 25.0263 26.1044C24.3293 28.0881 23.8289 30.1432 23.4416 32.2042C23.0842 34.1283 22.6612 36.2072 22.8995 38.167C23.1199 39.9779 23.9063 41.6219 24.8178 43.1767C25.7948 44.8446 26.8969 46.447 27.6296 48.2459C28.1539 49.5445 28.4458 50.9086 28.8687 52.2429C29.2262 53.3747 29.7326 54.5184 30.7751 55.1856C32.187 56.0851 34.0456 55.8826 35.6065 55.6324C36.1367 55.549 35.9103 54.7448 35.386 54.8282C34.0635 55.0426 32.3955 55.2452 31.1981 54.4648C30.3759 53.9287 29.9887 52.9875 29.6968 52.0881C29.3334 50.9563 29.0773 49.7947 28.6781 48.6748C28.1598 47.2094 27.4092 45.8513 26.605 44.5229C25.7054 43.0397 24.7284 41.5683 24.1565 39.9243C23.5846 38.2802 23.6263 36.5527 23.8587 34.7954C24.1089 32.9012 24.4842 31.0248 24.9667 29.1782C25.3778 27.5937 25.8007 25.747 26.7003 24.3531C28.5411 21.5177 33.021 20.6421 35.5231 23.0605C35.9103 23.4358 36.5001 22.8461 36.1128 22.4708L36.1188 22.4589Z" fill="white"/>
<path d="M36.2905 23.0455C38.5423 20.8772 42.2776 21.3657 44.4043 23.4744C45.5541 24.6121 46.0009 26.2503 46.4536 27.7633C46.9958 29.5682 47.4068 31.4089 47.7225 33.2674C48.0383 35.1259 48.3719 37.05 47.9489 38.9025C47.5796 40.5287 46.7456 41.9882 45.8937 43.3999C45.0418 44.8117 44.1422 46.2234 43.4929 47.7603C43.0163 48.8981 42.7005 50.0835 42.3669 51.2629C42.075 52.2994 41.7652 53.5027 40.9133 54.2413C39.7278 55.2718 37.8573 55.0514 36.4335 54.8191C35.9092 54.7357 35.6828 55.5399 36.213 55.6233C37.6666 55.8556 39.287 56.0343 40.6631 55.385C41.6461 54.9204 42.2537 54.0388 42.6529 53.0559C43.1473 51.8407 43.3975 50.5362 43.8086 49.2912C44.3745 47.5697 45.2741 46.009 46.2154 44.4721C47.1566 42.9353 48.1574 41.321 48.6459 39.5399C49.1642 37.6576 48.9378 35.7752 48.6578 33.875C48.3362 31.7365 47.8774 29.6159 47.2579 27.5488C46.7694 25.9286 46.269 24.1952 45.0537 22.9561C42.6112 20.4721 38.2981 19.9599 35.7007 22.4617C35.3135 22.837 35.9033 23.4267 36.2905 23.0514V23.0455Z" fill="white"/>
<path d="M27.6208 35.0702C28.5024 35.0702 29.1756 35.3799 29.7355 36.0471C29.7832 36.1067 29.7534 36.065 29.7891 36.1186C29.8189 36.1603 29.8487 36.202 29.8785 36.2437C29.938 36.3271 29.9916 36.4164 30.0453 36.4998C30.1525 36.6785 30.2478 36.8691 30.3371 37.0538C30.5158 37.4291 30.6529 37.8044 30.8018 38.2273C30.8792 38.4417 31.0877 38.5787 31.3141 38.5192C31.5166 38.4656 31.6834 38.2213 31.6059 38.0069C31.2783 37.0955 30.9269 36.1722 30.2954 35.4276C29.6223 34.6294 28.6514 34.2481 27.6208 34.2422C27.0847 34.2422 27.0847 35.0702 27.6208 35.0761V35.0702Z" fill="white"/>
<path d="M29.3867 38.6328L28.4455 38.7936C27.2899 40.4437 29.2676 42.1712 30.6674 40.8547L30.6555 39.9791" fill="white"/>
<path d="M45.4287 33.5841C44.3982 33.5901 43.4272 33.9713 42.7541 34.7695C42.1227 35.5141 41.7712 36.4374 41.4436 37.3488C41.3662 37.5633 41.527 37.8075 41.7355 37.8611C41.9678 37.9266 42.1703 37.7837 42.2478 37.5692C42.3967 37.1582 42.5337 36.7829 42.7065 36.4196C42.7958 36.2289 42.8911 36.0443 42.9983 35.8596C43.0937 35.6988 43.2366 35.4903 43.32 35.389C43.594 35.0614 43.8263 34.8589 44.1957 34.6742C44.565 34.4895 44.9998 34.4181 45.4347 34.4121C45.9708 34.4121 45.9708 33.5722 45.4347 33.5782L45.4287 33.5841Z" fill="white"/>
<path d="M43.8745 34.375L44.8156 34.5358C45.9713 36.1859 43.9936 37.9133 42.5938 36.5969L42.6057 35.7212" fill="white"/>
<path d="M32.1823 37.3943C32.2657 40.4799 32.4802 43.5774 31.7058 46.5975C31.5747 47.1158 32.3789 47.3421 32.51 46.8179C33.3082 43.7264 33.1056 40.5573 33.0222 37.3943C33.0103 36.8582 32.1764 36.8582 32.1883 37.3943H32.1823Z" fill="white"/>
<path d="M38.7985 37.3943C38.7151 40.5514 38.5126 43.7204 39.3108 46.8179C39.4418 47.3362 40.246 47.1158 40.1149 46.5975C39.3405 43.5774 39.555 40.4799 39.6324 37.3943C39.6443 36.8582 38.8104 36.8582 38.7985 37.3943Z" fill="white"/>
<path d="M26.6314 30.5399C28.4661 31.0343 30.1578 32.1065 31.0811 33.8102C31.3373 34.2808 32.0581 33.8638 31.8019 33.3872C30.7833 31.4989 28.889 30.2837 26.8578 29.7357C26.3395 29.5927 26.1191 30.3969 26.6374 30.5399H26.6314Z" fill="white"/>
<path d="M43.8441 29.7357C41.8128 30.2837 39.9185 31.5049 38.8999 33.3872C38.6438 33.8578 39.3645 34.2808 39.6207 33.8102C40.544 32.1065 42.2357 31.0402 44.0704 30.5399C44.5887 30.3969 44.3683 29.5927 43.85 29.7357H43.8441Z" fill="white"/>
<path d="M36.0281 51.9241C33.8359 51.4714 31.3281 50.56 31.3281 49.0827C32.317 47.5995 37.6423 47.9271 39.3639 48.3441C42.8367 49.178 37.8806 51.4357 36.0281 51.9301" fill="white"/>
<path d="M35.4925 51.9724C35.4925 53.0982 35.4865 54.2241 35.4746 55.3499C35.4746 55.886 36.3026 55.886 36.3086 55.3499C36.3145 54.2241 36.3264 53.0982 36.3264 51.9724C36.3264 51.4363 35.4925 51.4363 35.4925 51.9724Z" fill="white"/>
<path d="M17.8821 54.4043C18.0012 55.9114 17.9476 57.4244 17.9476 58.9315C17.9476 59.408 18.6922 59.414 18.6922 58.9315C18.6922 57.4244 18.7518 55.9114 18.6267 54.4043C18.591 53.9277 17.8464 53.9277 17.8821 54.4043Z" fill="white"/>
<path d="M16.1252 56.9039C17.6084 57.0885 19.0917 56.8443 20.5749 56.8384C21.0515 56.8384 21.0574 56.0938 20.5749 56.0938C19.0917 56.0938 17.6025 56.338 16.1252 56.1593C15.9226 56.1354 15.7559 56.3499 15.7559 56.5286C15.7559 56.749 15.9286 56.8741 16.1252 56.8979V56.9039Z" fill="white"/>
<path d="M16.5492 55.2373C17.6512 56.2797 18.5209 57.5485 19.6824 58.5314C19.8373 58.6625 20.0577 58.6803 20.2066 58.5314C20.3377 58.4004 20.3615 58.1383 20.2066 58.0072C19.0451 57.0243 18.1754 55.7555 17.0734 54.7131C16.7279 54.3855 16.1977 54.9097 16.5492 55.2373Z" fill="white"/>
<path d="M17.0705 58.6359C18.1368 57.5399 19.0541 56.3306 19.9595 55.1035C20.0787 54.9427 19.9834 54.6865 19.8285 54.5912C19.6379 54.4781 19.4413 54.5614 19.3162 54.7223C18.4465 55.8958 17.5649 57.0574 16.5463 58.1058C16.2127 58.4512 16.7369 58.9754 17.0705 58.63V58.6359Z" fill="white"/>
<path d="M51.4173 54.9824C51.5543 56.6563 51.4887 58.3361 51.4887 60.0159C51.4887 60.4925 52.2333 60.4984 52.2333 60.0159C52.2333 58.3361 52.2989 56.6563 52.1619 54.9824C52.1261 54.5059 51.3815 54.5059 51.4173 54.9824Z" fill="white"/>
<path d="M49.4201 57.7223C51.0642 57.9249 52.7202 57.6568 54.3702 57.6509C54.8468 57.6509 54.8527 56.9062 54.3702 56.9062C52.7202 56.9062 51.0701 57.1803 49.4201 56.9777C49.2176 56.9539 49.0508 57.1683 49.0508 57.3471C49.0508 57.5675 49.2235 57.6925 49.4201 57.7164V57.7223Z" fill="white"/>
<path d="M49.9164 55.8779C51.1375 57.0395 52.1025 58.4453 53.3951 59.5414C53.55 59.6724 53.7704 59.6903 53.9193 59.5414C54.0504 59.4103 54.0742 59.1482 53.9193 59.0172C52.6267 57.9211 51.6617 56.5153 50.4405 55.3537C50.0951 55.0261 49.5649 55.5503 49.9164 55.8779Z" fill="white"/>
<path d="M50.4435 59.6481C51.623 58.4329 52.6416 57.0867 53.6483 55.7285C53.7674 55.5677 53.6721 55.3115 53.5172 55.2162C53.3266 55.1031 53.1301 55.1864 53.005 55.3473C52.034 56.6578 51.0571 57.9445 49.9193 59.112C49.5858 59.4575 50.11 59.9817 50.4435 59.6362V59.6481Z" fill="white"/>
<path d="M23.865 10.5058C24.0258 12.4776 23.9484 14.4493 23.9484 16.4269C23.9484 16.9035 24.693 16.9094 24.693 16.4269C24.693 14.4552 24.7704 12.4776 24.6096 10.5058C24.5738 10.0293 23.8233 10.0293 23.865 10.5058Z" fill="white"/>
<path d="M21.4494 13.6639C23.3854 13.9022 25.3273 13.5865 27.2692 13.5805C27.7458 13.5805 27.7517 12.8359 27.2692 12.8359C25.3273 12.8419 23.3854 13.1576 21.4494 12.9193C21.2469 12.8955 21.0801 13.11 21.0801 13.2887C21.0801 13.5091 21.2528 13.6342 21.4494 13.658V13.6639Z" fill="white"/>
<path d="M22.0843 11.5107C23.5259 12.8748 24.6577 14.5308 26.1767 15.8175C26.3315 15.9486 26.5519 15.9664 26.7009 15.8175C26.8319 15.6865 26.8557 15.4244 26.7009 15.2933C25.1819 14.0066 24.0441 12.3506 22.6085 10.9865C22.263 10.6589 21.7329 11.1831 22.0843 11.5107Z" fill="white"/>
<path d="M22.6076 15.9522C23.9955 14.5285 25.1869 12.9499 26.3663 11.3535C26.4855 11.1927 26.3902 10.9365 26.2353 10.8412C26.0447 10.7281 25.8481 10.8114 25.723 10.9723C24.5793 12.5151 23.4237 14.04 22.0834 15.4161C21.7498 15.7616 22.274 16.2858 22.6076 15.9403V15.9522Z" fill="white"/>
<path d="M48.7522 9.08594C48.6271 9.55057 48.4603 11.2006 48.4305 11.6891C48.4305 11.6891 47.5906 11.7427 46.709 11.9809C47.2034 12.2728 48.359 12.3503 48.4007 12.4992C48.4782 12.8089 48.6866 14.3398 48.9487 15.1202C49.1334 14.1373 49.2525 13.3391 49.3776 12.4813C49.3895 12.392 50.5571 12.2192 51.0336 11.9631C50.4618 11.7248 49.6814 11.7308 49.2585 11.695C49.2585 11.695 49.0321 9.91393 48.7641 9.09189" fill="white"/>
<path d="M27.7717 58.3672C27.6466 58.8318 27.4798 60.4819 27.45 60.9703C27.45 60.9703 26.6101 61.0239 25.7285 61.2622C26.2229 61.5541 27.3786 61.6315 27.4203 61.7804C27.4977 62.0902 27.7062 63.6211 27.9683 64.4014C28.1529 63.4186 28.2721 62.6204 28.3972 61.7626C28.4091 61.6732 29.5766 61.5005 30.0532 61.2443C29.4813 61.0061 28.701 61.012 28.278 60.9763C28.278 60.9763 28.0517 59.1952 27.7836 58.3731" fill="white"/>
<path d="M15.6945 14.0528C15.5872 14.446 15.4502 15.8518 15.4205 16.2628C15.4205 16.2628 14.7056 16.3045 13.9551 16.507C14.378 16.7513 15.3609 16.8228 15.3907 16.9478C15.4562 17.2099 15.6349 18.5145 15.8553 19.1757C16.0161 18.3417 16.1114 17.6627 16.2187 16.93C16.2306 16.8525 17.2194 16.7096 17.6245 16.4892C17.142 16.2866 16.4748 16.2926 16.1174 16.2569C16.1174 16.2569 15.9268 14.7438 15.6945 14.0469" fill="white"/>
<path d="M37.7061 17.4393C39.6242 17.4393 39.6242 14.4609 37.7061 14.4609C35.7881 14.4609 35.7881 17.4393 37.7061 17.4393Z" fill="white"/>
<path d="M43.2901 63.601C44.7257 63.601 44.7317 61.3672 43.2901 61.3672C41.8486 61.3672 41.8486 63.601 43.2901 63.601Z" fill="white"/>
<path d="M31.3771 9.09221C32.6221 9.09221 32.6221 7.15625 31.3771 7.15625C30.1321 7.15625 30.1321 9.09221 31.3771 9.09221Z" fill="white"/>
<path d="M60.4181 20.6313C61.6631 20.6313 61.6631 18.6953 60.4181 18.6953C59.1731 18.6953 59.1731 20.6313 60.4181 20.6313Z" fill="white"/>
<path d="M40.6872 11.1058C43.0818 11.1058 43.0878 7.38281 40.6872 7.38281C38.2866 7.38281 38.2866 11.1058 40.6872 11.1058Z" fill="white"/>
<path d="M59.3058 55.0385C60.7414 55.0385 60.7473 52.8047 59.3058 52.8047C57.8642 52.8047 57.8642 55.0385 59.3058 55.0385Z" fill="white"/>
<path d="M11.2705 54.8183C12.4201 54.8183 12.4201 53.0312 11.2705 53.0312C10.1208 53.0312 10.1208 54.8183 11.2705 54.8183Z" fill="white"/>
<path d="M52.9716 17.5839C54.1213 17.5839 54.1213 15.7969 52.9716 15.7969C51.822 15.7969 51.822 17.5839 52.9716 17.5839Z" fill="white"/>
<path d="M34.7314 66.3495C35.8811 66.3495 35.8811 64.5625 34.7314 64.5625C33.5817 64.5625 33.5817 66.3495 34.7314 66.3495Z" fill="white"/>
</g>
<defs>
<clipPath id="clip0_202_18879">
<rect width="72" height="72" fill="white"/>
</clipPath>
</defs>
</svg>
