<svg width="18" height="18" viewBox="0 0 18 18" fill="none" xmlns="http://www.w3.org/2000/svg">
<path fill-rule="evenodd" clip-rule="evenodd" d="M2.98635 7.5375C2.87272 8.0064 2.8125 8.49617 2.8125 9C2.8125 9.50383 2.87272 9.9936 2.98635 10.4625H5.86523C5.79073 9.98465 5.7478 9.50006 5.73762 9.01172C5.73746 9.00391 5.73746 8.99609 5.73762 8.98828C5.7478 8.49994 5.79073 8.01535 5.86523 7.5375H2.98635ZM3.37786 6.4125H6.10205C6.43215 5.17315 6.97952 3.99844 7.72161 2.94472C5.78719 3.35107 4.18531 4.66096 3.37786 6.4125ZM9 3.11503C8.21374 4.09782 7.62884 5.21847 7.27107 6.4125H10.7289C10.3712 5.21847 9.78625 4.09782 9 3.11503ZM10.9946 7.5375H7.00542C6.9216 8.01815 6.87349 8.50692 6.86263 9C6.87349 9.49308 6.9216 9.98185 7.00542 10.4625H10.9946C11.0784 9.98185 11.1265 9.49308 11.1374 9C11.1265 8.50692 11.0784 8.01815 10.9946 7.5375ZM12.1348 10.4625C12.2093 9.98465 12.2522 9.50006 12.2624 9.01172C12.2625 9.00391 12.2625 8.99609 12.2624 8.98828C12.2522 8.49994 12.2093 8.01535 12.1348 7.5375H15.0136C15.1273 8.0064 15.1875 8.49617 15.1875 9C15.1875 9.50383 15.1273 9.9936 15.0136 10.4625H12.1348ZM10.7289 11.5875H7.27107C7.62884 12.7815 8.21374 13.9022 9 14.885C9.78625 13.9022 10.3712 12.7815 10.7289 11.5875ZM7.72161 15.0553C6.97952 14.0016 6.43215 12.8269 6.10205 11.5875H3.37786C4.18531 13.339 5.78719 14.6489 7.72161 15.0553ZM10.2784 15.0553C11.0205 14.0016 11.5679 12.8269 11.8979 11.5875H14.6221C13.8147 13.339 12.2128 14.6489 10.2784 15.0553ZM14.6221 6.4125H11.8979C11.5679 5.17315 11.0205 3.99844 10.2784 2.94472C12.2128 3.35107 13.8147 4.66096 14.6221 6.4125ZM1.6875 9C1.6875 4.96142 4.96142 1.6875 9 1.6875C13.0386 1.6875 16.3125 4.96142 16.3125 9C16.3125 13.0386 13.0386 16.3125 9 16.3125C4.96142 16.3125 1.6875 13.0386 1.6875 9Z" fill="white"/>
</svg>
