<svg width="24" height="24" viewBox="0 0 24 24" fill="none" xmlns="http://www.w3.org/2000/svg">
<g clip-path="url(#clip0_1471_11987)">
<path d="M12.001 9.2723C10.6866 9.2723 9.62109 8.20678 9.62109 6.89236V5.19239C9.62109 3.87802 10.6866 2.8125 12.001 2.8125C13.3154 2.8125 14.381 3.87802 14.381 5.19244V6.89241C14.381 8.20678 13.3154 9.2723 12.001 9.2723Z" stroke="white" stroke-width="1.5" stroke-miterlimit="10"/>
<path d="M5.45703 18.9186L6.90195 16.1562" stroke="white" stroke-width="1.5" stroke-miterlimit="10"/>
<path d="M10.9699 23.2972H5.74981C4.5785 23.2972 3.62891 22.3477 3.62891 21.1763C3.62891 19.8348 4.85867 18.8304 6.17314 19.0981L12.0949 20.3044" stroke="white" stroke-width="1.5" stroke-miterlimit="10"/>
<path d="M18.5465 18.9186L17.1016 16.1562" stroke="white" stroke-width="1.5" stroke-miterlimit="10"/>
<path d="M10.5547 23.2972H18.251C19.4223 23.2972 20.3719 22.3477 20.3719 21.1763C20.3719 19.8348 19.1421 18.8304 17.8277 19.0981L12.9283 20.0961C11.547 20.3775 10.5547 21.5923 10.5547 23.002V23.2972Z" stroke="white" stroke-width="1.5" stroke-miterlimit="10"/>
<path d="M11.5108 13.3125H6.30469" stroke="white" stroke-width="1.5" stroke-miterlimit="10"/>
<path d="M17.695 13.3136H11.5114C10.6313 13.3136 9.91773 14.0272 9.91773 14.9073C9.91773 15.7875 10.6313 16.501 11.5114 16.501M11.5114 16.501H16.2262C17.5717 16.501 18.5935 15.2902 18.3673 13.9639C17.9054 11.2548 15.5575 9.27344 12.8094 9.27344H11.191C8.44281 9.27344 6.09498 11.2548 5.63303 13.9639C5.40686 15.2902 6.42869 16.501 7.77414 16.501H11.5114Z" stroke="white" stroke-width="1.5" stroke-miterlimit="10"/>
<path d="M17.0625 3.46875C18.9782 3.46875 20.5312 5.02177 20.5312 6.9375C20.5312 5.02177 22.0843 3.46875 24 3.46875C22.0843 3.46875 20.5312 1.91573 20.5312 0C20.5312 1.91573 18.9782 3.46875 17.0625 3.46875Z" stroke="white" stroke-width="1.5" stroke-miterlimit="10"/>
<path d="M0 3.46875C1.91573 3.46875 3.46875 5.02177 3.46875 6.9375C3.46875 5.02177 5.02177 3.46875 6.9375 3.46875C5.02177 3.46875 3.46875 1.91573 3.46875 0C3.46875 1.91573 1.91573 3.46875 0 3.46875Z" stroke="white" stroke-width="1.5" stroke-miterlimit="10"/>
</g>
<defs>
<clipPath id="clip0_1471_11987">
<rect width="24" height="24" fill="white"/>
</clipPath>
</defs>
</svg>
