<svg width="14" height="14" viewBox="0 0 14 14" fill="none" xmlns="http://www.w3.org/2000/svg">
<g clip-path="url(#clip0_5900_12405)">
<path d="M8.203 9.03921C8.25508 8.83733 8.36031 8.6531 8.50773 8.50568C8.65515 8.35826 8.83938 8.25304 9.04125 8.20096L12.62 7.27812C12.6811 7.26079 12.7348 7.22402 12.7731 7.17338C12.8113 7.12275 12.832 7.06101 12.832 6.99754C12.832 6.93407 12.8113 6.87234 12.7731 6.8217C12.7348 6.77106 12.6811 6.73429 12.62 6.71696L9.04125 5.79354C8.83945 5.74151 8.65527 5.63638 8.50785 5.48906C8.36044 5.34175 8.25517 5.15764 8.203 4.95587L7.28017 1.37712C7.26302 1.31583 7.22628 1.26182 7.17557 1.22335C7.12485 1.18489 7.06295 1.16406 6.9993 1.16406C6.93564 1.16406 6.87374 1.18489 6.82302 1.22335C6.77231 1.26182 6.73557 1.31583 6.71842 1.37712L5.79617 4.95587C5.74409 5.15775 5.63887 5.34198 5.49145 5.4894C5.34403 5.63682 5.1598 5.74205 4.95792 5.79413L1.37917 6.71637C1.31763 6.73335 1.26336 6.77005 1.22468 6.82084C1.186 6.87163 1.16506 6.9337 1.16506 6.99754C1.16506 7.06138 1.186 7.12346 1.22468 7.17425C1.26336 7.22504 1.31763 7.26173 1.37917 7.27871L4.95792 8.20096C5.1598 8.25304 5.34403 8.35826 5.49145 8.50568C5.63887 8.6531 5.74409 8.83733 5.79617 9.03921L6.719 12.618C6.73616 12.6793 6.77289 12.7333 6.82361 12.7717C6.87432 12.8102 6.93623 12.831 6.99988 12.831C7.06353 12.831 7.12544 12.8102 7.17615 12.7717C7.22686 12.7333 7.2636 12.6793 7.28075 12.618L8.203 9.03921Z" stroke="white" stroke-width="2" stroke-linecap="round" stroke-linejoin="round"/>
<path d="M2.33203 1.75V4.08333" stroke="white" stroke-width="2" stroke-linecap="round" stroke-linejoin="round"/>
<path d="M1.16667 2.91406H3.5" stroke="white" stroke-width="2" stroke-linecap="round" stroke-linejoin="round"/>
<path d="M11.668 9.91406V11.0807" stroke="white" stroke-width="2" stroke-linecap="round" stroke-linejoin="round"/>
<path d="M11.0833 10.5H12.25" stroke="white" stroke-width="2" stroke-linecap="round" stroke-linejoin="round"/>
</g>
<defs>
<clipPath id="clip0_5900_12405">
<rect width="14" height="14" fill="white" transform="matrix(-1 0 0 1 14 0)"/>
</clipPath>
</defs>
</svg>
