<svg width="15" height="14" viewBox="0 0 15 14" fill="none" xmlns="http://www.w3.org/2000/svg">
<g clip-path="url(#clip0_6056_12361)">
<path d="M5.85754 9.03921C5.80546 8.83733 5.70024 8.6531 5.55282 8.50568C5.4054 8.35826 5.22117 8.25304 5.01929 8.20096L1.44054 7.27812C1.37949 7.26079 1.32575 7.22402 1.28748 7.17338C1.24922 7.12275 1.22852 7.06101 1.22852 6.99754C1.22852 6.93407 1.24922 6.87234 1.28748 6.8217C1.32575 6.77106 1.37949 6.73429 1.44054 6.71696L5.01929 5.79354C5.2211 5.74151 5.40528 5.63638 5.55269 5.48906C5.70011 5.34175 5.80537 5.15764 5.85754 4.95587L6.78038 1.37712C6.79753 1.31583 6.83427 1.26182 6.88498 1.22335C6.93569 1.18489 6.9976 1.16406 7.06125 1.16406C7.1249 1.16406 7.18681 1.18489 7.23752 1.22335C7.28824 1.26182 7.32497 1.31583 7.34213 1.37712L8.26438 4.95587C8.31646 5.15775 8.42168 5.34198 8.5691 5.4894C8.71652 5.63682 8.90075 5.74205 9.10263 5.79413L12.6814 6.71637C12.7429 6.73335 12.7972 6.77005 12.8359 6.82084C12.8745 6.87163 12.8955 6.9337 12.8955 6.99754C12.8955 7.06138 12.8745 7.12346 12.8359 7.17425C12.7972 7.22504 12.7429 7.26173 12.6814 7.27871L9.10263 8.20096C8.90075 8.25304 8.71652 8.35826 8.5691 8.50568C8.42168 8.6531 8.31646 8.83733 8.26438 9.03921L7.34154 12.618C7.32439 12.6793 7.28765 12.7333 7.23694 12.7717C7.18623 12.8102 7.12432 12.831 7.06067 12.831C6.99702 12.831 6.93511 12.8102 6.8844 12.7717C6.83368 12.7333 6.79695 12.6793 6.77979 12.618L5.85754 9.03921Z" stroke="white" stroke-width="2" stroke-linecap="round" stroke-linejoin="round"/>
<path d="M11.7266 1.75V4.08333" stroke="white" stroke-width="2" stroke-linecap="round" stroke-linejoin="round"/>
<path d="M12.8939 2.91406H10.5605" stroke="white" stroke-width="2" stroke-linecap="round" stroke-linejoin="round"/>
<path d="M2.39453 9.91406V11.0807" stroke="white" stroke-width="2" stroke-linecap="round" stroke-linejoin="round"/>
<path d="M2.97721 10.5H1.81055" stroke="white" stroke-width="2" stroke-linecap="round" stroke-linejoin="round"/>
</g>
<defs>
<clipPath id="clip0_6056_12361">
<rect width="14" height="14" fill="white" transform="translate(0.0605469)"/>
</clipPath>
</defs>
</svg>
