<svg width="24" height="24" viewBox="0 0 24 24" fill="none" xmlns="http://www.w3.org/2000/svg">
<path fill-rule="evenodd" clip-rule="evenodd" d="M14.3572 4.46636C15.7706 3.05288 18.0623 3.05288 19.4758 4.46636C20.8893 5.87984 20.8893 8.17154 19.4758 9.58502L9.2353 19.8255C8.95451 20.1063 8.58977 20.2878 8.19645 20.3425L4.8887 20.802C3.87011 20.9436 2.99862 20.0721 3.14014 19.0535L3.59971 15.7457C3.65436 15.3524 3.83585 14.9877 4.11664 14.7069L14.3572 4.46636ZM18.4152 5.52702C17.5875 4.69933 16.2455 4.69933 15.4178 5.52702L5.1773 15.7675C5.1274 15.8174 5.09515 15.8822 5.08544 15.9521L4.62587 19.2599C4.6243 19.2712 4.62573 19.2779 4.6274 19.2827C4.62947 19.2886 4.63351 19.2956 4.64003 19.3021C4.64656 19.3087 4.65355 19.3127 4.65949 19.3148C4.66428 19.3164 4.67098 19.3179 4.68227 19.3163L4.78548 20.0592L4.68227 19.3163L7.99004 18.8567C8.05992 18.847 8.12474 18.8148 8.17463 18.7649L18.4151 8.52436C19.2428 7.69667 19.2428 6.35471 18.4152 5.52702Z" fill="white"/>
<path fill-rule="evenodd" clip-rule="evenodd" d="M14.4678 9.53033C14.1749 9.23744 14.1749 8.76256 14.4678 8.46967L15.4678 7.46967C15.7607 7.17678 16.2356 7.17678 16.5285 7.46967C16.8214 7.76256 16.8214 8.23744 16.5285 8.53033L15.5285 9.53033C15.2356 9.82322 14.7607 9.82322 14.4678 9.53033Z" fill="white"/>
</svg>
