<svg width="106" height="33" viewBox="0 0 106 33" fill="none" xmlns="http://www.w3.org/2000/svg">
<path d="M4.86136 0.917899C3.8059 1.29658 2.1518 1.90148 1.03383 3.24408C0.409828 4.00029 0.0556572 4.84603 0 5.71288C0.0557626 6.57921 0.409939 7.42441 1.03383 8.18005C2.1518 9.51445 3.8059 10.1276 4.86136 10.5062C7.0382 11.2652 9.49778 11.5637 11.925 11.3636V0.0605377C9.49778 -0.139564 7.0382 0.158972 4.86136 0.917899Z" fill="#82460A"/>
<path d="M106 7.52315H9.15782C7.2942 7.65557 5.40539 7.45976 3.73329 6.9608C2.92274 6.71146 1.65248 6.30777 0.793933 5.42916C0.314813 4.93161 0.042823 4.37511 0 3.80469V29.2392C0.0425474 29.8097 0.314556 30.3662 0.793933 30.8637C1.65248 31.7434 2.92274 32.146 3.73329 32.3953C5.27444 32.8596 7.00678 33.063 8.73502 32.9825V32.9976H106L87.3391 20.2609L106 7.52315Z" fill="url(#paint0_linear_7725_17598)"/>
<path d="M4.86136 0.917899C3.8059 1.29658 2.1518 1.90148 1.03383 3.24408C0.409828 4.00029 0.0556572 4.84603 0 5.71288C0.0557626 6.57921 0.409939 7.42441 1.03383 8.18005C2.1518 9.51445 3.8059 10.1276 4.86136 10.5062C7.0382 11.2652 9.49778 11.5637 11.925 11.3636V0.0605377C9.49778 -0.139564 7.0382 0.158972 4.86136 0.917899Z" fill="#571F19"/>
<path d="M106 7.52315H9.15782C7.2942 7.65557 5.40539 7.45976 3.73329 6.9608C2.92274 6.71146 1.65248 6.30777 0.793933 5.42916C0.314813 4.93161 0.042823 4.37511 0 3.80469V29.2392C0.0425474 29.8097 0.314556 30.3662 0.793933 30.8637C1.65248 31.7434 2.92274 32.146 3.73329 32.3953C5.27444 32.8596 7.00678 33.063 8.73502 32.9825V32.9976H106L87.3391 20.2609L106 7.52315Z" fill="url(#paint1_linear_7725_17598)"/>
<g filter="url(#filter0_i_7725_17598)">
<path d="M17.6494 14.875H20.4863L21.6758 14.8477L22.4893 14.8271C23.3597 14.8271 24.0114 14.998 24.4443 15.3398C24.8773 15.6816 25.0938 16.1966 25.0938 16.8848C25.0938 18.0469 24.6403 19.0153 23.7334 19.79C22.8265 20.5602 21.694 20.9453 20.3359 20.9453H19.5635L19.1465 23.0098C19.0781 23.3561 19.0439 23.682 19.0439 23.9873C19.0439 24.1331 19.085 24.222 19.167 24.2539C19.2536 24.2858 19.5384 24.3177 20.0215 24.3496L20.1445 24.3564L20.0215 24.9922H15.6328L15.7559 24.3564L15.8857 24.3496C16.3643 24.3177 16.6514 24.2493 16.7471 24.1445C16.8473 24.0352 16.9727 23.6569 17.123 23.0098L18.3467 16.8506C18.3877 16.609 18.4355 16.3151 18.4902 15.9688C18.4902 15.7044 18.21 15.5518 17.6494 15.5107L17.5195 15.5039L17.6494 14.875ZM19.6934 20.2686H20.1514C20.9671 20.2686 21.6393 19.9701 22.168 19.373C22.7012 18.7715 22.9678 18.0059 22.9678 17.0762C22.9678 16.5658 22.8333 16.1829 22.5645 15.9277C22.2956 15.6725 21.8923 15.5449 21.3545 15.5449H20.6299L19.6934 20.2686ZM25.21 24.9922L26.3105 19.4688C26.3652 19.1543 26.4154 18.8604 26.4609 18.5869C26.4609 18.318 26.1761 18.1654 25.6064 18.1289L25.4834 18.1221L25.6064 17.4863H28.7236L28.1016 20.6172C28.5983 19.6374 29.1816 18.8421 29.8516 18.2314C30.526 17.6208 31.1527 17.3154 31.7314 17.3154C31.9274 17.3154 32.1029 17.3587 32.2578 17.4453L31.5469 19.3799C31.3236 19.2204 31.1162 19.1406 30.9248 19.1406C30.0817 19.1406 29.054 20.0817 27.8418 21.9639L27.2197 24.9922H25.21ZM38.6699 23.1328L38.4717 24.0693C36.9951 24.7985 35.7327 25.1631 34.6846 25.1631C33.8597 25.1631 33.1966 24.9352 32.6953 24.4795C32.1986 24.0192 31.9502 23.4085 31.9502 22.6475C31.9502 21.2712 32.4583 20.0384 33.4746 18.9492C34.4909 17.86 35.6393 17.3154 36.9199 17.3154C37.4486 17.3154 37.8861 17.4613 38.2324 17.7529C38.5788 18.04 38.752 18.4046 38.752 18.8467C38.752 19.7171 38.2848 20.4691 37.3506 21.1025C36.4163 21.736 35.3066 22.0527 34.0215 22.0527C34.0124 22.1803 34.0078 22.2943 34.0078 22.3945C34.0078 22.9095 34.1559 23.3219 34.4521 23.6318C34.7529 23.9372 35.154 24.0898 35.6553 24.0898C36.4574 24.0898 37.4622 23.7708 38.6699 23.1328ZM34.1035 21.3965C34.901 21.3965 35.5596 21.196 36.0791 20.7949C36.5986 20.3893 36.8584 19.8766 36.8584 19.2568C36.8584 18.8695 36.7923 18.5801 36.6602 18.3887C36.528 18.1973 36.3275 18.1016 36.0586 18.1016C35.5892 18.1016 35.1699 18.4115 34.8008 19.0312C34.4362 19.6465 34.2038 20.4349 34.1035 21.3965ZM39.8252 24.9922L40.9258 19.4688C40.9805 19.1543 41.0306 18.8604 41.0762 18.5869C41.0762 18.318 40.7913 18.1654 40.2217 18.1289L40.0986 18.1221L40.2217 17.4863H43.3389L42.6348 20.6309C43.8561 18.4206 45.0798 17.3154 46.3057 17.3154C46.6657 17.3154 46.9688 17.4362 47.2148 17.6777C47.4609 17.9193 47.584 18.2178 47.584 18.5732C47.584 18.7646 47.5384 19.0814 47.4473 19.5234L47.2285 20.6309C48.4863 18.4206 49.7168 17.3154 50.9199 17.3154C51.2754 17.3154 51.5648 17.4476 51.7881 17.7119C52.016 17.9717 52.1299 18.3089 52.1299 18.7236C52.1299 18.9697 52.098 19.2568 52.0342 19.585L51.3506 23.0098C51.2549 23.5749 51.207 23.8688 51.207 23.8916C51.207 24.1605 51.4896 24.3132 52.0547 24.3496L52.1777 24.3564L52.0547 24.9922H49.0195L49.9834 20.125C50.0518 19.7923 50.0859 19.5827 50.0859 19.4961C50.0859 19.2044 49.9583 19.0586 49.7031 19.0586C49.0697 19.0586 48.1536 20.0407 46.9551 22.0049L46.3604 24.9922H44.4121L45.3965 20.1387C45.4603 19.8242 45.4922 19.6077 45.4922 19.4893C45.4922 19.2021 45.3714 19.0586 45.1299 19.0586C44.5876 19.0586 43.6579 20.0498 42.3408 22.0322L41.7666 24.9922H39.8252ZM53.3877 24.9922L54.4883 19.4688L54.6387 18.5869C54.6387 18.318 54.3538 18.1654 53.7842 18.1289L53.6611 18.1221L53.7842 17.4863H56.9082L55.8076 23.0098L55.6982 23.7275L55.6641 23.8916C55.6641 24.1605 55.9466 24.3132 56.5117 24.3496L56.6348 24.3564L56.5117 24.9922H53.3877ZM55.1309 16.2217L55.4863 14.4512H57.5098L57.1611 16.2217H55.1309ZM62.4727 24.9922L63.1016 21.8477C62.5775 22.873 61.9782 23.682 61.3037 24.2744C60.6292 24.8669 59.9707 25.1631 59.3281 25.1631C58.9727 25.1631 58.6719 25.0332 58.4258 24.7734C58.1797 24.5091 58.0566 24.1901 58.0566 23.8164C58.0566 23.5885 58.0954 23.2741 58.1729 22.873L58.8496 19.4688L59 18.5869C59 18.318 58.7174 18.1654 58.1523 18.1289L58.0225 18.1221L58.1455 17.4863H61.2695L60.2168 22.791C60.1712 23.0098 60.1484 23.1921 60.1484 23.3379C60.1484 23.5612 60.2373 23.6729 60.415 23.6729C60.971 23.6729 61.9622 22.6064 63.3887 20.4736L63.9697 17.4863H65.9932L64.8926 23.0098C64.7969 23.5749 64.749 23.8688 64.749 23.8916C64.749 24.1605 65.0316 24.3132 65.5967 24.3496L65.7197 24.3564L65.5967 24.9922H62.4727ZM67.0322 24.9922L68.1328 19.4688C68.1875 19.1543 68.2376 18.8604 68.2832 18.5869C68.2832 18.318 67.9984 18.1654 67.4287 18.1289L67.3057 18.1221L67.4287 17.4863H70.5459L69.8418 20.6309C71.0632 18.4206 72.2868 17.3154 73.5127 17.3154C73.8727 17.3154 74.1758 17.4362 74.4219 17.6777C74.668 17.9193 74.791 18.2178 74.791 18.5732C74.791 18.7646 74.7454 19.0814 74.6543 19.5234L74.4355 20.6309C75.6934 18.4206 76.9238 17.3154 78.127 17.3154C78.4824 17.3154 78.7718 17.4476 78.9951 17.7119C79.223 17.9717 79.3369 18.3089 79.3369 18.7236C79.3369 18.9697 79.305 19.2568 79.2412 19.585L78.5576 23.0098C78.4619 23.5749 78.4141 23.8688 78.4141 23.8916C78.4141 24.1605 78.6966 24.3132 79.2617 24.3496L79.3848 24.3564L79.2617 24.9922H76.2266L77.1904 20.125C77.2588 19.7923 77.293 19.5827 77.293 19.4961C77.293 19.2044 77.1654 19.0586 76.9102 19.0586C76.2767 19.0586 75.3607 20.0407 74.1621 22.0049L73.5674 24.9922H71.6191L72.6035 20.1387C72.6673 19.8242 72.6992 19.6077 72.6992 19.4893C72.6992 19.2021 72.5785 19.0586 72.3369 19.0586C71.7946 19.0586 70.8649 20.0498 69.5479 22.0322L68.9736 24.9922H67.0322Z" fill="#FFFEF7"/>
</g>
<defs>
<filter id="filter0_i_7725_17598" x="15.6328" y="14.4531" width="63.752" height="14.7109" filterUnits="userSpaceOnUse" color-interpolation-filters="sRGB">
<feFlood flood-opacity="0" result="BackgroundImageFix"/>
<feBlend mode="normal" in="SourceGraphic" in2="BackgroundImageFix" result="shape"/>
<feColorMatrix in="SourceAlpha" type="matrix" values="0 0 0 0 0 0 0 0 0 0 0 0 0 0 0 0 0 0 127 0" result="hardAlpha"/>
<feOffset dy="4"/>
<feGaussianBlur stdDeviation="2"/>
<feComposite in2="hardAlpha" operator="arithmetic" k2="-1" k3="1"/>
<feColorMatrix type="matrix" values="0 0 0 0 0 0 0 0 0 0 0 0 0 0 0 0 0 0 0.25 0"/>
<feBlend mode="normal" in2="shape" result="effect1_innerShadow_7725_17598"/>
</filter>
<linearGradient id="paint0_linear_7725_17598" x1="74.3944" y1="7.725" x2="52.4322" y2="61.6758" gradientUnits="userSpaceOnUse">
<stop stop-color="#D08306"/>
<stop offset="1" stop-color="#804D13"/>
</linearGradient>
<linearGradient id="paint1_linear_7725_17598" x1="74.3944" y1="7.72501" x2="38.3478" y2="52.9874" gradientUnits="userSpaceOnUse">
<stop stop-color="#A15708"/>
<stop offset="1" stop-color="#612A24"/>
</linearGradient>
</defs>
</svg>
