<svg width="54" height="48" viewBox="0 0 54 48" fill="none" xmlns="http://www.w3.org/2000/svg">
<g clip-path="url(#clip0_7551_19371)">
<path d="M54 27.7911L23.5714 0.00164413H0L54 48.8438V27.7911Z" fill="url(#paint0_linear_7551_19371)" fill-opacity="0.6"/>
<path d="M12.1892 7.87575L17.5765 1.96164L19.9468 4.04574C20.4025 4.44639 20.7127 4.8734 20.8774 5.32674C21.0438 5.77816 21.0734 6.22894 20.9663 6.67907C20.8628 7.129 20.6322 7.55033 20.2745 7.94306C19.9167 8.3358 19.515 8.60667 19.0694 8.75567C18.6237 8.90468 18.1612 8.91934 17.6821 8.79967C17.2049 8.68171 16.7355 8.41983 16.2739 8.01401L14.7631 6.68566L15.6759 5.68361L16.9814 6.83141C17.2258 7.04635 17.465 7.18208 17.6988 7.23858C17.9363 7.29487 18.1617 7.28329 18.375 7.20384C18.592 7.12418 18.789 6.98713 18.9661 6.79268C19.145 6.59632 19.261 6.38973 19.3141 6.17291C19.3709 5.95589 19.3559 5.73645 19.2692 5.51459C19.1843 5.29081 19.0186 5.07058 18.7721 4.85392L17.9155 4.10075L13.4594 8.9926L12.1892 7.87575ZM17.5144 12.5579L21.5549 8.1223L22.7664 9.18756L22.0614 9.96148L22.1084 10.0027C22.4413 9.79967 22.7686 9.71298 23.0902 9.74268C23.4136 9.77045 23.7014 9.89525 23.9537 10.1171C24.0163 10.1721 24.0803 10.2353 24.1456 10.3066C24.211 10.3779 24.2649 10.4444 24.3074 10.506L23.313 11.5976C23.2701 11.5287 23.203 11.4419 23.1116 11.3373C23.0202 11.2327 22.9315 11.1425 22.8455 11.0669C22.6616 10.9053 22.4614 10.8003 22.2448 10.752C22.0319 10.7034 21.8202 10.7115 21.6099 10.7762C21.4015 10.8426 21.2148 10.9663 21.05 11.1472L18.7641 13.6567L17.5144 12.5579ZM22.6594 17.2377C22.1959 16.8301 21.8811 16.3869 21.715 15.9081C21.5527 15.429 21.5367 14.94 21.6672 14.441C21.7994 13.9402 22.0786 13.4558 22.5048 12.988C22.9204 12.5317 23.3751 12.2104 23.869 12.024C24.3628 11.8376 24.8607 11.7917 25.3627 11.8864C25.8666 11.9827 26.3396 12.2252 26.7815 12.6138C27.0788 12.8752 27.3126 13.1657 27.4829 13.4853C27.6568 13.8047 27.7546 14.142 27.7761 14.4973C27.7997 14.8542 27.7363 15.2215 27.5861 15.5991C27.4376 15.9747 27.1915 16.3512 26.8478 16.7286L26.54 17.0664L22.7352 13.721L23.4296 12.9587L26.0581 15.2697C26.2194 15.0926 26.3233 14.9013 26.3695 14.6959C26.4158 14.4904 26.4046 14.2881 26.3359 14.089C26.2709 13.8897 26.1475 13.7101 25.9656 13.5502C25.7759 13.3834 25.5682 13.2788 25.3426 13.2365C25.1207 13.194 24.903 13.2088 24.6893 13.2809C24.4774 13.3512 24.2907 13.473 24.1291 13.6465L23.4689 14.3713C23.2689 14.5908 23.1373 14.8165 23.0739 15.0485C23.0124 15.2823 23.0185 15.5095 23.0921 15.7303C23.1657 15.951 23.3072 16.1534 23.5164 16.3374C23.6553 16.4595 23.8 16.552 23.9504 16.615C24.1009 16.6779 24.2523 16.707 24.4045 16.7022C24.5568 16.6974 24.7053 16.6581 24.8501 16.5843L25.9375 17.6756C25.6298 17.8974 25.2921 18.0304 24.9243 18.0745C24.5603 18.1185 24.1837 18.0717 23.7947 17.9342C23.4094 17.7966 23.031 17.5644 22.6594 17.2377ZM25.622 19.6865L29.6625 15.2509L30.8535 16.2981L30.1407 17.0807L30.1935 17.1271C30.5241 16.9498 30.8673 16.8823 31.2231 16.9247C31.579 16.9672 31.9094 17.1225 32.2145 17.3908C32.5235 17.6624 32.7173 17.9698 32.7958 18.3127C32.8761 18.6538 32.835 18.9851 32.6723 19.3067L32.7193 19.3479C33.0427 19.1746 33.3939 19.1177 33.773 19.1771C34.1558 19.2363 34.5125 19.4112 34.843 19.7018C35.2635 20.0715 35.4846 20.5035 35.5064 20.9976C35.532 21.4916 35.3255 21.9792 34.8871 22.4605L32.1698 25.4436L30.923 24.3474L33.4194 21.6069C33.6438 21.3605 33.7457 21.1172 33.7249 20.877C33.7042 20.6369 33.5941 20.4291 33.3946 20.2537C33.1677 20.0543 32.9258 19.9699 32.6689 20.0006C32.4138 20.0293 32.181 20.1592 31.9706 20.3902L29.5031 23.099L28.2916 22.0337L30.8116 19.2672C31.0098 19.0497 31.1041 18.8205 31.0944 18.5798C31.0868 18.3407 30.9803 18.1309 30.7749 17.9504C30.636 17.8283 30.4793 17.7529 30.3047 17.7242C30.1338 17.6953 29.96 17.7141 29.7832 17.7805C29.6082 17.8451 29.4461 17.9592 29.2971 18.1228L26.8717 20.7853L25.622 19.6865ZM33.1569 26.3115L37.1974 21.8759L38.4471 22.9747L34.4066 27.4103L33.1569 26.3115ZM38.346 21.8561C38.1602 21.6928 38.0561 21.492 38.0336 21.2538C38.0148 21.0153 38.0834 20.8105 38.2395 20.6391C38.3938 20.4697 38.5917 20.382 38.8333 20.3759C39.0785 20.3696 39.294 20.4481 39.4798 20.6115C39.6656 20.7749 39.7679 20.9758 39.7867 21.2142C39.8092 21.4524 39.7433 21.6562 39.5889 21.8256C39.4329 21.997 39.2322 22.0858 38.987 22.0921C38.7455 22.0981 38.5318 22.0195 38.346 21.8561ZM40.0176 28.9426L42.3377 26.3956L43.5874 27.4944L39.547 31.9299L38.3471 30.875L39.081 30.0693L39.0341 30.028C38.6957 30.1985 38.3362 30.2587 37.9558 30.2085C37.5773 30.16 37.2189 29.987 36.8805 29.6895C36.5793 29.4247 36.3757 29.1243 36.2697 28.7884C36.1636 28.4524 36.1591 28.1035 36.2563 27.7417C36.3554 27.3816 36.5618 27.0274 36.8755 26.6791L39.4482 23.8549L40.6979 24.9537L38.3251 27.5585C38.0886 27.822 37.9715 28.0917 37.9737 28.3676C37.976 28.6435 38.0955 28.8855 38.3321 29.0936C38.4827 29.226 38.6542 29.3161 38.8466 29.3639C39.0408 29.4098 39.2393 29.4006 39.4423 29.3364C39.6472 29.2738 39.8389 29.1426 40.0176 28.9426ZM40.5466 32.8088L44.5871 28.3733L45.7781 29.4205L45.0652 30.203L45.118 30.2495C45.4486 30.0721 45.7919 30.0046 46.1477 30.0471C46.5035 30.0895 46.834 30.2448 47.1391 30.5131C47.4481 30.7848 47.6419 31.0921 47.7204 31.4351C47.8007 31.7761 47.7595 32.1074 47.5969 32.429L47.6438 32.4703C47.9672 32.297 48.3185 32.24 48.6976 32.2994C49.0804 32.3587 49.437 32.5336 49.7676 32.8242C50.188 33.1939 50.4092 33.6258 50.431 34.12C50.4565 34.6139 50.2501 35.1016 49.8116 35.5829L47.0943 38.5659L45.8475 37.4697L48.3439 34.7292C48.5684 34.4828 48.6702 34.2395 48.6495 33.9994C48.6287 33.7592 48.5186 33.5515 48.3191 33.3761C48.0923 33.1766 47.8504 33.0922 47.5935 33.1229C47.3384 33.1517 47.1056 33.2816 46.8951 33.5126L44.4277 36.2213L43.2161 35.156L45.7362 32.3896C45.9343 32.172 46.0286 31.9429 46.019 31.7021C46.0113 31.4631 45.9048 31.2533 45.6994 31.0727C45.5606 30.9506 45.4039 30.8752 45.2293 30.8465C45.0584 30.8176 44.8845 30.8364 44.7077 30.9029C44.5327 30.9674 44.3707 31.0815 44.2216 31.2451L41.7963 33.9076L40.5466 32.8088Z" fill="white"/>
</g>
<defs>
<linearGradient id="paint0_linear_7551_19371" x1="11.195" y1="38.1937" x2="56.2438" y2="-15.4204" gradientUnits="userSpaceOnUse">
<stop stop-color="#B28A1B"/>
<stop offset="1" stop-color="#544211"/>
</linearGradient>
<clipPath id="clip0_7551_19371">
<rect width="54" height="48" fill="white" transform="matrix(-1 0 0 -1 54 48)"/>
</clipPath>
</defs>
</svg>
