<svg width="25" height="24" viewBox="0 0 25 24" fill="none" xmlns="http://www.w3.org/2000/svg">
<g opacity="0.4">
<path d="M11.75 7.5C11.75 8.24168 11.5301 8.96671 11.118 9.58339C10.706 10.2001 10.1203 10.6807 9.43506 10.9646C8.74984 11.2484 7.99584 11.3226 7.26841 11.1779C6.54098 11.0333 5.8728 10.6761 5.34835 10.1517C4.8239 9.6272 4.46675 8.95902 4.32206 8.23159C4.17736 7.50416 4.25162 6.75016 4.53545 6.06494C4.81928 5.37972 5.29993 4.79405 5.91661 4.38199C6.5333 3.96994 7.25832 3.75 8 3.75C8.99456 3.75 9.94839 4.14509 10.6517 4.84835C11.3549 5.55161 11.75 6.50544 11.75 7.5ZM17 11.25C17.7417 11.25 18.4667 11.0301 19.0834 10.618C19.7001 10.206 20.1807 9.62029 20.4646 8.93506C20.7484 8.24984 20.8226 7.49584 20.6779 6.76841C20.5333 6.04098 20.1761 5.3728 19.6517 4.84835C19.1272 4.3239 18.459 3.96675 17.7316 3.82206C17.0042 3.67736 16.2502 3.75162 15.5649 4.03545C14.8797 4.31928 14.294 4.79993 13.882 5.41661C13.4699 6.0333 13.25 6.75832 13.25 7.5C13.25 8.49456 13.6451 9.44839 14.3484 10.1517C15.0516 10.8549 16.0054 11.25 17 11.25ZM8 12.75C7.25832 12.75 6.5333 12.9699 5.91661 13.382C5.29993 13.794 4.81928 14.3797 4.53545 15.0649C4.25162 15.7502 4.17736 16.5042 4.32206 17.2316C4.46675 17.959 4.8239 18.6272 5.34835 19.1517C5.8728 19.6761 6.54098 20.0333 7.26841 20.1779C7.99584 20.3226 8.74984 20.2484 9.43506 19.9646C10.1203 19.6807 10.706 19.2001 11.118 18.5834C11.5301 17.9667 11.75 17.2417 11.75 16.5C11.75 15.5054 11.3549 14.5516 10.6517 13.8484C9.94839 13.1451 8.99456 12.75 8 12.75ZM17 12.75C16.2583 12.75 15.5333 12.9699 14.9166 13.382C14.2999 13.794 13.8193 14.3797 13.5355 15.0649C13.2516 15.7502 13.1774 16.5042 13.3221 17.2316C13.4668 17.959 13.8239 18.6272 14.3484 19.1517C14.8728 19.6761 15.541 20.0333 16.2684 20.1779C16.9958 20.3226 17.7498 20.2484 18.4351 19.9646C19.1203 19.6807 19.706 19.2001 20.118 18.5834C20.5301 17.9667 20.75 17.2417 20.75 16.5C20.75 15.5054 20.3549 14.5516 19.6517 13.8484C18.9484 13.1451 17.9946 12.75 17 12.75Z" fill="white"/>
</g>
</svg>
