<svg width="61" height="61" viewBox="0 0 61 61" fill="none" xmlns="http://www.w3.org/2000/svg">
<circle opacity="0.2" cx="30.5" cy="30.5" r="30.5" fill="white" fill-opacity="0.5"/>
<path d="M27.0056 43.2096L26.4973 39.143C26.2219 39.0371 25.9627 38.91 25.7195 38.7617C25.4764 38.6135 25.2379 38.4546 25.004 38.2852L21.2233 39.8737L17.7285 33.8372L21.0009 31.3591C20.9797 31.2109 20.9691 31.0681 20.9691 30.9308V30.073C20.9691 29.9349 20.9797 29.7918 21.0009 29.6435L17.7285 27.1654L21.2233 21.1289L25.004 22.7174C25.237 22.548 25.4806 22.3891 25.7348 22.2409C25.9889 22.0926 26.2431 21.9655 26.4973 21.8596L27.0056 17.793H33.9952L34.5035 21.8596C34.7789 21.9655 35.0385 22.0926 35.2825 22.2409C35.5265 22.3891 35.7646 22.548 35.9967 22.7174L39.7775 21.1289L43.2723 27.1654L39.9999 29.6435C40.0211 29.7918 40.0316 29.9349 40.0316 30.073V30.9296C40.0316 31.0677 40.0105 31.2109 39.9681 31.3591L43.2405 33.8372L39.7457 39.8737L35.9967 38.2852C35.7638 38.4546 35.5202 38.6135 35.266 38.7617C35.0119 38.91 34.7577 39.0371 34.5035 39.143L33.9952 43.2096H27.0056ZM30.5639 34.9492C31.7924 34.9492 32.8408 34.515 33.7092 33.6466C34.5776 32.7782 35.0119 31.7298 35.0119 30.5013C35.0119 29.2728 34.5776 28.2244 33.7092 27.356C32.8408 26.4876 31.7924 26.0534 30.5639 26.0534C29.3143 26.0534 28.2603 26.4876 27.4021 27.356C26.5439 28.2244 26.1152 29.2728 26.116 30.5013C26.1169 31.7298 26.546 32.7782 27.4034 33.6466C28.2608 34.515 29.3143 34.9492 30.5639 34.9492Z" fill="white"/>
</svg>
