<svg width="24" height="33" viewBox="0 0 24 33" fill="none" xmlns="http://www.w3.org/2000/svg">
<path d="M12 0.460938L6 6.29427H10.5V19.4193H13.5V6.29427H18M21 32.5443H3C2.20435 32.5443 1.44129 32.237 0.87868 31.69C0.31607 31.143 0 30.4012 0 29.6276V12.1276C0 11.3541 0.31607 10.6122 0.87868 10.0652C1.44129 9.51823 2.20435 9.21094 3 9.21094H7.5V12.1276H3V29.6276H21V12.1276H16.5V9.21094H21C21.7956 9.21094 22.5587 9.51823 23.1213 10.0652C23.6839 10.6122 24 11.3541 24 12.1276V29.6276C24 30.4012 23.6839 31.143 23.1213 31.69C22.5587 32.237 21.7956 32.5443 21 32.5443Z" fill="white"/>
</svg>
