<svg width="76" height="60" viewBox="0 0 76 60" fill="none" xmlns="http://www.w3.org/2000/svg">
<path d="M21.1544 28.7311V29.5766L4.53657 57.5928H12.6991C13.9999 57.5928 15.0569 57.4546 15.8617 57.17C16.691 56.8855 17.3495 56.4545 17.8211 55.8611C18.317 55.2432 18.6991 54.4302 18.943 53.4139C19.195 52.4058 19.3902 51.17 19.5284 49.7066H20.4877C20.4064 50.5765 20.3658 51.731 20.3658 53.1619C20.3658 53.6985 20.382 54.4708 20.4064 55.479C20.4633 56.4627 20.5446 57.4871 20.6584 58.5521C19.6341 58.4952 18.504 58.4708 17.2845 58.4708C16.065 58.4464 14.8455 58.4302 13.6178 58.4302H10.2845C8.65038 58.4302 6.91054 58.4464 5.08128 58.4708C3.27641 58.4708 1.58536 58.4952 0 58.5521V57.7066L16.7398 29.6904H8.61785C7.31705 29.6904 6.24388 29.8287 5.41461 30.1132C4.60974 30.3978 3.95933 30.8449 3.45527 31.4628C2.98373 32.0563 2.626 32.853 2.37397 33.8612C2.12194 34.8693 1.92682 36.1051 1.78861 37.5685H0.829268C0.886178 37.1213 0.910561 36.601 0.910561 36.0075C0.934951 35.414 0.951214 34.788 0.951214 34.1132C0.951214 33.5766 0.926831 32.8205 0.869921 31.8368C0.845531 30.8287 0.772352 29.788 0.658532 28.723C1.68292 28.7474 2.813 28.7799 4.03251 28.8043C5.25201 28.8287 6.47152 28.8449 7.69915 28.8449H16.1138C17.943 28.8205 19.6259 28.7718 21.1544 28.7148V28.7311Z" fill="white"/>
<path d="M34.8042 37.1541C33.918 37.1541 33.0562 37.52 32.2188 38.2517C31.414 38.9509 30.666 39.9265 29.9668 41.1622C29.3002 42.3736 28.7067 43.7313 28.1782 45.2516C27.6823 46.772 27.292 48.3411 27.0156 49.9671C26.7392 51.5931 26.601 53.154 26.601 54.6418C26.601 55.902 26.7961 56.8288 27.1863 57.4223C27.601 58.0158 28.2026 58.3085 28.9749 58.3085C29.8611 58.3085 30.7067 57.9589 31.5115 57.2516C32.3408 56.5199 33.105 55.5524 33.8042 54.341C34.4953 53.1053 35.0969 51.7313 35.5928 50.211C36.0887 48.6907 36.479 47.1378 36.7554 45.5362C37.0318 43.9102 37.17 42.333 37.17 40.8208C37.17 39.5281 36.9749 38.6013 36.5847 38.0403C36.1944 37.4468 35.6009 37.1541 34.7961 37.1541H34.8042ZM23.0156 52.528C23.0156 51.2923 23.1782 49.9427 23.5116 48.4874C23.8449 47.0321 24.3408 45.5768 25.0075 44.146C25.6742 42.7151 26.479 41.4061 27.4221 40.2273C28.3977 39.0484 29.5197 38.1053 30.7961 37.4062C32.0725 36.6745 33.4871 36.3086 35.04 36.3086C36.7635 36.3086 38.1375 36.8533 39.1619 37.9509C40.2188 39.0159 40.7473 40.6744 40.7473 42.9183C40.7473 44.1541 40.5847 45.5037 40.2513 46.959C39.918 48.4142 39.4221 49.8695 38.7554 51.3004C38.0887 52.7313 37.2676 54.0402 36.3001 55.2191C35.357 56.3979 34.2432 57.3573 32.9668 58.0809C31.6904 58.78 30.2758 59.1378 28.7229 59.1378C26.9994 59.1378 25.6172 58.593 24.5603 57.4955C23.536 56.3979 23.0238 54.7394 23.0238 52.528H23.0156Z" fill="white"/>
<path d="M61.7556 36.3984V54.0081C61.7556 55.2683 61.9752 56.2113 62.4223 56.8292C62.8939 57.4227 63.7231 57.7154 64.9182 57.7154V58.6016C64.0565 58.5203 63.1947 58.4715 62.3329 58.4715C61.528 58.4715 60.7475 58.5122 59.9996 58.6016C59.276 58.6829 58.6093 58.8374 57.9996 59.065V54.0975C57.3085 55.9268 56.3167 57.2276 55.0402 58.0162C53.7882 58.7723 52.5037 59.1544 51.1703 59.1544C50.2029 59.1544 49.3492 59.0162 48.6338 58.7317C47.9102 58.4471 47.3167 58.0569 46.8451 57.5528C46.3167 56.9918 45.959 56.2601 45.7639 55.3658C45.5687 54.4634 45.4712 53.3577 45.4712 52.0406V41.4635C45.4712 40.2033 45.2517 39.2765 44.8045 38.683C44.3574 38.0651 43.5281 37.7562 42.3086 37.7562V36.87C43.1948 36.9513 44.0565 37.0001 44.8939 37.0001C45.7313 37.0001 46.463 36.9594 47.1866 36.87C47.9346 36.7562 48.6175 36.6017 49.2272 36.4066V52.9593C49.2272 53.8293 49.2842 54.6341 49.3899 55.3577C49.5037 56.0894 49.7801 56.6748 50.2191 57.1301C50.6663 57.5772 51.3817 57.8048 52.3817 57.8048C53.463 57.8048 54.4223 57.4715 55.2516 56.7967C56.1134 56.1219 56.7801 55.2114 57.2516 54.0569C57.7476 52.9024 57.9996 51.6097 57.9996 50.1789V41.4553C57.9996 40.1952 57.7801 39.2683 57.3329 38.6749C56.8857 38.057 56.0565 37.748 54.837 37.748V36.8619C55.7232 36.9432 56.585 36.9919 57.4223 36.9919C58.2597 36.9919 58.9914 36.9513 59.715 36.8619C60.463 36.748 61.1459 36.5936 61.7556 36.3984Z" fill="white"/>
<path d="M72.836 25.5277V54.6332C72.836 55.8121 73.0718 56.617 73.5433 57.0316C74.0392 57.4543 74.8604 57.6657 75.9986 57.6657V58.5519C75.5271 58.5275 74.8035 58.495 73.836 58.4706C72.8929 58.4137 71.9336 58.3893 70.9661 58.3893C69.9986 58.3893 69.0637 58.4137 68.0962 58.4706C67.1206 58.495 66.4051 58.5275 65.9336 58.5519V57.6657C67.0718 57.6657 67.8767 57.4543 68.3482 57.0316C68.8442 56.6088 69.0962 55.8121 69.0962 54.6332V30.5764C69.0962 29.3163 68.8767 28.3894 68.4295 27.7959C67.9824 27.1781 67.1531 26.8691 65.9336 26.8691V25.9829C66.8198 26.0643 67.6815 26.113 68.5189 26.113C69.3563 26.113 70.088 26.0724 70.8116 25.9829C71.5596 25.8691 72.2425 25.7147 72.8523 25.5195L72.836 25.5277Z" fill="white"/>
<path d="M38.5327 25.3077C31.5573 25.3077 25.8789 19.6327 25.8789 12.6539C25.8789 5.67506 31.5539 0 38.5327 0C45.5115 0 51.1865 5.67506 51.1865 12.6539C51.1865 19.6327 45.5115 25.3077 38.5327 25.3077ZM38.5327 3.67112C33.5779 3.67112 29.5467 7.70235 29.5467 12.6572C29.5467 17.612 33.5779 21.6433 38.5327 21.6433C43.4875 21.6433 47.5188 17.612 47.5188 12.6572C47.5188 7.70235 43.4875 3.67112 38.5327 3.67112Z" fill="white"/>
<path d="M54.7725 9.54105C56.9012 9.54105 58.627 7.81533 58.627 5.68654C58.627 3.55775 56.9012 1.83203 54.7725 1.83203C52.6437 1.83203 50.918 3.55775 50.918 5.68654C50.918 7.81533 52.6437 9.54105 54.7725 9.54105Z" fill="white"/>
</svg>
